<svg width="536" height="339" viewBox="0 0 536 339" fill="none" xmlns="http://www.w3.org/2000/svg">
<g clip-path="url(#clip0)">
<path d="M480.849 330.957C468.828 339.012 453.249 339.417 438.191 338.427C436.088 338.289 434 338.127 431.932 337.953C431.919 337.95 431.903 337.951 431.89 337.948C431.791 337.939 431.691 337.93 431.596 337.925C431.169 337.888 430.742 337.851 430.319 337.813L430.419 337.991L430.732 338.541C430.62 338.357 430.507 338.176 430.394 337.992C430.361 337.937 430.324 337.882 430.291 337.827C426.39 331.512 422.521 324.966 421.534 317.755C420.514 310.271 423.381 301.796 430.462 298.118C431.391 297.637 432.374 297.254 433.394 296.976C433.818 296.856 434.247 296.759 434.681 296.673C437.337 296.124 440.102 296.244 442.692 297.019C445.281 297.794 447.603 299.196 449.416 301.082C451.23 302.968 452.471 305.269 453.012 307.75C453.553 310.23 453.373 312.799 452.493 315.193C458.496 309.467 457.377 300.177 455.306 292.413C453.231 284.65 450.719 276.011 454.939 269.037C457.285 265.156 461.411 262.748 466.04 261.778C466.182 261.749 466.324 261.721 466.467 261.696C471.983 260.657 477.718 261.591 482.526 264.313C491.378 269.503 495.925 279.341 497.401 288.979C499.779 304.489 494.517 321.797 480.849 330.957Z" fill="#F2F2F2"/>
<path d="M476.968 306.095C476.619 309.516 475.736 312.871 474.346 316.055C473.065 318.873 471.338 321.496 469.223 323.839C464.826 328.626 459.257 332.361 452.985 334.73C448.24 336.537 443.27 337.78 438.191 338.427C436.088 338.289 434 338.127 431.932 337.953C431.919 337.95 431.903 337.951 431.89 337.948C431.791 337.939 431.691 337.93 431.596 337.925C431.169 337.888 430.742 337.851 430.319 337.813L430.419 337.991L430.732 338.541C430.62 338.357 430.507 338.176 430.394 337.992C430.361 337.937 430.324 337.882 430.291 337.827C434.099 334.298 436.942 329.971 438.582 325.21C440.222 320.448 440.611 315.39 439.717 310.46C438.781 305.565 436.615 300.944 433.394 296.976C433.818 296.856 434.247 296.759 434.681 296.673C435.905 298.229 436.979 299.883 437.889 301.615C441.157 307.793 442.199 314.785 440.862 321.557C439.619 327.684 436.523 333.355 431.936 337.903C432.338 337.876 432.743 337.846 433.14 337.812C440.657 337.22 448.158 335.717 454.976 332.638C460.804 330.07 465.863 326.208 469.709 321.393C473.838 316.096 475.657 309.725 475.97 303.249C476.211 296.272 475.424 289.298 473.633 282.519C471.897 275.607 469.257 268.919 465.773 262.603C465.696 262.46 465.68 262.295 465.73 262.141C465.779 261.987 465.891 261.857 466.04 261.778C466.165 261.699 466.319 261.67 466.467 261.696C466.539 261.714 466.606 261.747 466.663 261.792C466.72 261.837 466.765 261.894 466.795 261.958C467.225 262.738 467.647 263.519 468.053 264.308C471.431 270.884 473.919 277.824 475.458 284.97C476.953 291.864 477.75 299.075 476.968 306.095Z" fill="white"/>
<path d="M22.3626 107.75C22.0047 107.75 21.65 107.687 21.3166 107.566C20.7775 107.374 20.3142 107.033 19.9881 106.589C19.6621 106.146 19.4888 105.621 19.4912 105.084V77.2577C19.4901 76.3158 19.0874 75.4128 18.3714 74.7468C17.6554 74.0808 16.6847 73.7061 15.6721 73.705H9.54632C7.01534 73.7024 4.58884 72.766 2.79917 71.1013C1.0095 69.4366 0.0028211 67.1795 -1.54972e-05 64.8252V8.87984C0.00282278 6.52557 1.0095 4.26848 2.79917 2.60376C4.58884 0.93904 7.01534 0.00263855 9.54632 0H225.621C228.152 0.00264168 230.579 0.939041 232.368 2.60376C234.158 4.26848 235.165 6.52557 235.168 8.87984V64.8252C235.165 67.1795 234.158 69.4365 232.368 71.1013C230.579 72.766 228.152 73.7024 225.621 73.705H58.8421C58.3127 73.7056 57.7892 73.8083 57.3046 74.0066C56.82 74.2048 56.3849 74.4945 56.0267 74.8571L24.4659 106.884C24.1994 107.156 23.8747 107.374 23.5125 107.523C23.1503 107.672 22.7587 107.75 22.3626 107.75ZM9.54632 1.18325C7.3526 1.18555 5.24945 1.99718 3.69826 3.44007C2.14707 4.88296 1.27452 6.83928 1.27204 8.87984V64.8252C1.27452 66.8657 2.14707 68.8221 3.69826 70.265C5.24945 71.7078 7.35261 72.5195 9.54632 72.5218H15.6721C17.0219 72.5232 18.316 73.0226 19.2705 73.9105C20.2249 74.7983 20.7618 76.0021 20.7633 77.2577V105.084C20.7633 105.382 20.8602 105.673 21.0413 105.919C21.2223 106.166 21.4791 106.355 21.778 106.463C22.0768 106.571 22.4038 106.593 22.7162 106.525C23.0285 106.458 23.3115 106.304 23.5282 106.084L55.0891 74.0575C55.5666 73.5741 56.1466 73.188 56.7926 72.9237C57.4385 72.6594 58.1364 72.5225 58.8422 72.5218H225.621C227.815 72.5195 229.918 71.7078 231.469 70.265C233.02 68.8221 233.893 66.8657 233.895 64.8252V8.87984C233.893 6.83928 233.02 4.88296 231.469 3.44007C229.918 1.99718 227.815 1.18555 225.621 1.18325H9.54632Z" fill="#CCCCCC"/>
<path d="M23.4161 25.1973C28.0295 25.1973 31.7695 21.7184 31.7695 17.4271C31.7695 13.1357 28.0295 9.65686 23.4161 9.65686C18.8026 9.65686 15.0626 13.1357 15.0626 17.4271C15.0626 21.7184 18.8026 25.1973 23.4161 25.1973Z" fill="#CCCCCC"/>
<path d="M215.876 60.4222H19.292C18.7065 60.4229 18.1266 60.3162 17.5855 60.1082C17.0443 59.9003 16.5526 59.5951 16.1383 59.2102C15.724 58.8253 15.3954 58.3683 15.1712 57.8652C14.9469 57.3621 14.8315 56.8228 14.8315 56.2781C14.8315 55.7335 14.9469 55.1942 15.1712 54.6911C15.3954 54.188 15.724 53.731 16.1383 53.3461C16.5526 52.9612 17.0443 52.656 17.5855 52.4481C18.1266 52.2401 18.7065 52.1334 19.292 52.134H215.876C216.461 52.1334 217.041 52.2401 217.582 52.4481C218.123 52.656 218.615 52.9612 219.029 53.3461C219.444 53.731 219.772 54.188 219.996 54.6911C220.221 55.1942 220.336 55.7335 220.336 56.2781C220.336 56.8228 220.221 57.3621 219.996 57.8652C219.772 58.3683 219.444 58.8253 219.029 59.2102C218.615 59.5951 218.123 59.9003 217.582 60.1082C217.041 60.3162 216.461 60.4229 215.876 60.4222Z" fill="#CCCCCC"/>
<path d="M151.833 42.8097H19.292C18.7065 42.8104 18.1266 42.7036 17.5855 42.4957C17.0443 42.2877 16.5526 41.9826 16.1383 41.5977C15.724 41.2128 15.3954 40.7557 15.1712 40.2526C14.9469 39.7495 14.8315 39.2102 14.8315 38.6656C14.8315 38.121 14.9469 37.5817 15.1712 37.0786C15.3954 36.5755 15.724 36.1184 16.1383 35.7335C16.5526 35.3486 17.0443 35.0435 17.5855 34.8355C18.1266 34.6275 18.7065 34.5208 19.292 34.5215H151.833C152.418 34.5208 152.998 34.6275 153.539 34.8355C154.08 35.0435 154.572 35.3486 154.986 35.7335C155.401 36.1184 155.729 36.5755 155.954 37.0786C156.178 37.5817 156.293 38.121 156.293 38.6656C156.293 39.2102 156.178 39.7495 155.954 40.2526C155.729 40.7557 155.401 41.2128 154.986 41.5977C154.572 41.9826 154.08 42.2877 153.539 42.4957C152.998 42.7036 152.418 42.8104 151.833 42.8097Z" fill="#CCCCCC"/>
<path d="M22.3626 305.113C22.0047 305.113 21.65 305.051 21.3166 304.929C20.7775 304.737 20.3142 304.396 19.9882 303.953C19.6621 303.509 19.4888 302.984 19.4913 302.447V274.621C19.4901 273.679 19.0874 272.776 18.3714 272.11C17.6554 271.444 16.6847 271.069 15.6721 271.068H9.54632C7.01535 271.066 4.58886 270.129 2.79919 268.465C1.00952 266.8 0.00283403 264.543 -9.29832e-06 262.188V206.243C0.00282897 203.889 1.00951 201.632 2.79918 199.967C4.58885 198.302 7.01535 197.366 9.54632 197.363H225.621C228.152 197.366 230.579 198.302 232.368 199.967C234.158 201.632 235.165 203.889 235.168 206.243V262.188C235.165 264.543 234.158 266.8 232.368 268.465C230.579 270.129 228.152 271.066 225.621 271.068H58.8421C58.3127 271.069 57.7892 271.172 57.3046 271.37C56.82 271.568 56.3849 271.858 56.0268 272.22L24.4659 304.247C24.1994 304.519 23.8747 304.737 23.5125 304.886C23.1503 305.036 22.7587 305.113 22.3626 305.113ZM9.54632 198.546C7.35261 198.549 5.24945 199.36 3.69826 200.803C2.14707 202.246 1.27452 204.203 1.27205 206.243V262.188C1.27453 264.229 2.14707 266.185 3.69826 267.628C5.24945 269.071 7.35261 269.883 9.54632 269.885H15.6721C17.0219 269.886 18.316 270.386 19.2705 271.274C20.225 272.162 20.7618 273.365 20.7633 274.621V302.447C20.7633 302.745 20.8602 303.036 21.0413 303.283C21.2223 303.529 21.4791 303.718 21.778 303.827C22.0768 303.935 22.4038 303.956 22.7162 303.889C23.0285 303.821 23.3115 303.667 23.5282 303.447L55.0891 271.421C55.5666 270.937 56.1466 270.551 56.7926 270.287C57.4385 270.023 58.1364 269.886 58.8422 269.885H225.621C227.815 269.883 229.918 269.071 231.469 267.628C233.02 266.185 233.893 264.229 233.895 262.188V206.243C233.893 204.203 233.02 202.246 231.469 200.803C229.918 199.36 227.815 198.549 225.621 198.547L9.54632 198.546Z" fill="#CCCCCC"/>
<path d="M341.447 202.547C341.051 202.546 340.66 202.469 340.297 202.32C339.935 202.171 339.611 201.953 339.344 201.68L307.783 169.654C307.425 169.291 306.99 169.002 306.505 168.803C306.021 168.605 305.497 168.502 304.968 168.502H138.189C135.658 168.499 133.231 167.563 131.442 165.898C129.652 164.233 128.645 161.976 128.643 159.622V103.676C128.645 101.322 129.652 99.0651 131.442 97.4004C133.231 95.7357 135.658 94.7993 138.189 94.7966H354.264C356.795 94.7993 359.221 95.7357 361.011 97.4004C362.8 99.0651 363.807 101.322 363.81 103.676V159.622C363.807 161.976 362.8 164.233 361.011 165.898C359.221 167.563 356.795 168.499 354.264 168.502H348.138C347.125 168.503 346.155 168.877 345.439 169.543C344.723 170.209 344.32 171.112 344.319 172.054V199.88C344.321 200.417 344.148 200.943 343.822 201.386C343.496 201.829 343.032 202.17 342.493 202.363C342.16 202.484 341.805 202.546 341.447 202.547ZM138.189 95.9799C135.995 95.9822 133.892 96.7938 132.341 98.2367C130.79 99.6796 129.917 101.636 129.915 103.676V159.622C129.917 161.662 130.79 163.619 132.341 165.062C133.892 166.504 135.995 167.316 138.189 167.318H304.968C305.674 167.319 306.371 167.456 307.017 167.72C307.663 167.985 308.243 168.371 308.721 168.854L340.282 200.881C340.498 201.1 340.782 201.254 341.094 201.322C341.406 201.39 341.733 201.368 342.032 201.26C342.331 201.152 342.588 200.962 342.769 200.716C342.95 200.47 343.047 200.179 343.047 199.88V172.054C343.048 170.799 343.585 169.595 344.539 168.707C345.494 167.819 346.788 167.32 348.138 167.318H354.264C356.457 167.316 358.561 166.504 360.112 165.062C361.663 163.619 362.535 161.662 362.538 159.622V103.676C362.535 101.636 361.663 99.6796 360.112 98.2367C358.561 96.7938 356.457 95.9822 354.264 95.9799L138.189 95.9799Z" fill="#3F3D56"/>
<path d="M23.4161 222.56C28.0295 222.56 31.7695 219.082 31.7695 214.79C31.7695 210.499 28.0295 207.02 23.4161 207.02C18.8026 207.02 15.0626 210.499 15.0626 214.79C15.0626 219.082 18.8026 222.56 23.4161 222.56Z" fill="#CCCCCC"/>
<path d="M215.876 257.785H19.292C18.7065 257.786 18.1266 257.679 17.5855 257.471C17.0443 257.263 16.5526 256.958 16.1383 256.573C15.724 256.189 15.3954 255.731 15.1712 255.228C14.9469 254.725 14.8315 254.186 14.8315 253.641C14.8315 253.097 14.9469 252.557 15.1712 252.054C15.3954 251.551 15.724 251.094 16.1383 250.709C16.5526 250.324 17.0443 250.019 17.5855 249.811C18.1266 249.603 18.7065 249.497 19.292 249.497H215.876C217.057 249.497 218.19 249.934 219.026 250.711C219.861 251.488 220.331 252.542 220.331 253.641C220.331 254.74 219.861 255.795 219.026 256.572C218.19 257.349 217.057 257.785 215.876 257.785Z" fill="#CCCCCC"/>
<path d="M151.833 240.173H19.292C18.7065 240.174 18.1266 240.067 17.5855 239.859C17.0443 239.651 16.5526 239.346 16.1383 238.961C15.724 238.576 15.3954 238.119 15.1712 237.616C14.9469 237.113 14.8315 236.573 14.8315 236.029C14.8315 235.484 14.9469 234.945 15.1712 234.442C15.3954 233.939 15.724 233.482 16.1383 233.097C16.5526 232.712 17.0443 232.407 17.5855 232.199C18.1266 231.991 18.7065 231.884 19.292 231.885H151.833C152.418 231.884 152.998 231.991 153.539 232.199C154.08 232.407 154.572 232.712 154.986 233.097C155.401 233.482 155.729 233.939 155.954 234.442C156.178 234.945 156.293 235.484 156.293 236.029C156.293 236.573 156.178 237.113 155.954 237.616C155.729 238.119 155.401 238.576 154.986 238.961C154.572 239.346 154.08 239.651 153.539 239.859C152.998 240.067 152.418 240.174 151.833 240.173Z" fill="#CCCCCC"/>
<path d="M152.059 119.476C156.672 119.476 160.412 115.997 160.412 111.706C160.412 107.414 156.672 103.935 152.059 103.935C147.445 103.935 143.705 107.414 143.705 111.706C143.705 115.997 147.445 119.476 152.059 119.476Z" fill="#3F3D56"/>
<path d="M344.518 154.701H147.935C146.753 154.701 145.62 154.264 144.784 153.487C143.949 152.71 143.479 151.656 143.479 150.557C143.479 149.458 143.949 148.403 144.784 147.626C145.62 146.849 146.753 146.412 147.935 146.412H344.518C345.7 146.412 346.833 146.849 347.668 147.626C348.504 148.403 348.973 149.458 348.973 150.557C348.973 151.656 348.504 152.71 347.668 153.487C346.833 154.264 345.7 154.701 344.518 154.701Z" fill="#371CA9"/>
<path d="M280.475 137.088H147.934C147.349 137.089 146.769 136.982 146.228 136.774C145.687 136.566 145.195 136.261 144.781 135.876C144.367 135.491 144.038 135.034 143.814 134.531C143.589 134.028 143.474 133.489 143.474 132.944C143.474 132.4 143.589 131.86 143.814 131.357C144.038 130.854 144.367 130.397 144.781 130.012C145.195 129.627 145.687 129.322 146.228 129.114C146.769 128.906 147.349 128.799 147.934 128.8H280.475C281.061 128.799 281.641 128.906 282.182 129.114C282.723 129.322 283.215 129.627 283.629 130.012C284.043 130.397 284.372 130.854 284.596 131.357C284.82 131.86 284.936 132.4 284.936 132.944C284.936 133.489 284.82 134.028 284.596 134.531C284.372 135.034 284.043 135.491 283.629 135.876C283.215 136.261 282.723 136.566 282.182 136.774C281.641 136.982 281.061 137.089 280.475 137.088Z" fill="#371CA9"/>
<path d="M344.432 213.196C344.623 212.345 345.013 211.543 345.573 210.847C346.133 210.15 346.851 209.577 347.675 209.166C348.499 208.756 349.41 208.518 350.344 208.471C351.277 208.423 352.211 208.567 353.079 208.891L367.999 192.943L371.169 203.526L356.514 217.048C355.831 218.368 354.652 219.409 353.2 219.974C351.748 220.539 350.123 220.589 348.634 220.114C347.145 219.639 345.894 218.673 345.12 217.398C344.346 216.123 344.101 214.628 344.432 213.196Z" fill="#FFB8B8"/>
<path d="M426.323 138.358C434.951 138.358 441.945 131.852 441.945 123.827C441.945 115.802 434.951 109.296 426.323 109.296C417.696 109.296 410.702 115.802 410.702 123.827C410.702 131.852 417.696 138.358 426.323 138.358Z" fill="#FFB8B8"/>
<path d="M407.971 323.839L400.174 323.838L396.464 295.861L407.973 295.862L407.971 323.839Z" fill="#FFB8B8"/>
<path d="M409.96 330.869L384.818 330.868V330.573C384.818 329.377 385.071 328.193 385.563 327.089C386.054 325.985 386.775 324.981 387.684 324.136C388.593 323.291 389.672 322.62 390.859 322.163C392.046 321.705 393.319 321.47 394.604 321.47H394.605L409.961 321.47L409.96 330.869Z" fill="#2F2E41"/>
<path d="M431.504 331.53L423.707 331.529L422.627 304.221L431.506 303.553L431.504 331.53Z" fill="#FFB8B8"/>
<path d="M433.493 338.56L408.351 338.56V338.264C408.351 337.068 408.604 335.885 409.096 334.78C409.587 333.676 410.308 332.672 411.217 331.827C412.126 330.982 413.205 330.311 414.392 329.854C415.579 329.396 416.852 329.161 418.137 329.161H418.138L433.494 329.161L433.493 338.56Z" fill="#2F2E41"/>
<path d="M429.287 326.424L423.215 325.759C422.526 325.682 421.891 325.376 421.426 324.897C420.961 324.418 420.699 323.799 420.687 323.153L419.549 249.592C419.546 249.384 419.464 249.183 419.318 249.025C419.172 248.868 418.971 248.763 418.75 248.729C418.529 248.695 418.303 248.735 418.11 248.841C417.917 248.947 417.771 249.112 417.696 249.309L409.272 271.435L409.874 312.909C409.884 313.593 409.611 314.255 409.11 314.757C408.609 315.258 407.919 315.561 407.185 315.602L399.257 315.915C398.532 315.954 397.818 315.736 397.259 315.305C396.699 314.874 396.335 314.263 396.24 313.593L392.099 266.677L392.097 266.648L398.379 217.65L445.561 220.825L432.464 324.092C432.381 324.739 432.046 325.336 431.523 325.769C430.999 326.202 430.323 326.441 429.623 326.443C429.511 326.443 429.398 326.437 429.287 326.424Z" fill="#2F2E41"/>
<path d="M398.58 221.993C398.157 221.783 397.797 221.476 397.535 221.102C397.273 220.728 397.118 220.298 397.082 219.853C397.082 219.853 401.325 195.31 402.88 194.849L399.478 168.603C399.071 165.402 399.355 162.157 400.314 159.059C401.273 155.962 402.888 153.073 405.063 150.564C407.158 148.13 409.761 146.115 412.716 144.643C415.671 143.17 418.916 142.27 422.256 141.996C422.731 141.956 423.204 141.926 423.675 141.905C427.7 141.704 431.718 142.411 435.387 143.964C439.056 145.518 442.268 147.872 444.749 150.828C447.322 153.808 449.084 157.323 449.883 161.073C450.683 164.823 450.496 168.698 449.34 172.366L447.433 178.543V221.705C447.43 222.126 447.322 222.541 447.117 222.917C446.911 223.292 446.614 223.617 446.248 223.866C440.307 227.922 433.593 229.356 427.069 229.356C414.723 229.356 403.054 224.221 398.58 221.993Z" fill="#371CA9"/>
<path d="M361.952 214.095L353.745 208.387C353.423 208.163 353.156 207.879 352.96 207.552C352.764 207.226 352.644 206.864 352.609 206.492C352.573 206.12 352.622 205.744 352.752 205.391C352.883 205.037 353.092 204.713 353.366 204.439L402.253 155.646C403.822 154.093 405.938 153.115 408.216 152.89C410.494 152.665 412.784 153.207 414.669 154.418L414.669 154.418C415.818 155.163 416.776 156.134 417.475 157.263C418.174 158.391 418.597 159.649 418.714 160.947C418.831 162.245 418.639 163.551 418.151 164.772C417.664 165.993 416.893 167.099 415.894 168.011L365.67 213.863C365.229 214.27 364.657 214.531 364.041 214.607C363.425 214.682 362.799 214.568 362.26 214.282C362.153 214.226 362.05 214.163 361.952 214.095Z" fill="#371CA9"/>
<path d="M424.759 207.634C425.117 206.831 425.661 206.111 426.351 205.524C427.042 204.938 427.862 204.499 428.754 204.239C429.646 203.979 430.589 203.905 431.516 204.02C432.443 204.136 433.331 204.439 434.118 204.909L451.982 191.838L452.967 202.786L435.852 213.52C434.917 214.697 433.549 215.515 432.009 215.817C430.469 216.12 428.863 215.886 427.495 215.161C426.128 214.435 425.094 213.268 424.589 211.881C424.085 210.494 424.145 208.983 424.759 207.634Z" fill="#FFB8B8"/>
<path d="M440.748 212.737C440.275 212.6 439.849 212.351 439.511 212.014C439.174 211.677 438.938 211.263 438.825 210.815L437.021 203.765C436.888 203.265 436.917 202.739 437.104 202.254C437.291 201.769 437.627 201.345 438.07 201.036L450.211 188.823L432.353 163.208C431.001 161.659 430.239 159.738 430.186 157.745C430.133 155.751 430.791 153.797 432.059 152.188C433.069 150.906 434.426 149.896 435.991 149.259C437.557 148.622 439.276 148.381 440.973 148.561C442.671 148.741 444.287 149.335 445.659 150.283C447.03 151.231 448.108 152.499 448.783 153.96L465.386 184.02C467.036 187.007 467.448 190.454 466.542 193.705C465.637 196.955 463.477 199.783 460.475 201.648L443.508 212.19C442.988 212.623 442.316 212.862 441.619 212.863C441.323 212.863 441.029 212.82 440.748 212.737Z" fill="#371CA9"/>
<path d="M437.899 136.817C437.531 137.023 437.117 137.147 436.689 137.18C436.261 137.212 435.831 137.153 435.431 137.006C435.032 136.86 434.674 136.629 434.386 136.334C434.098 136.038 433.887 135.684 433.769 135.3L433.759 135.264C433.441 134.055 433.692 132.789 433.774 131.547C433.856 130.305 433.718 128.941 432.803 128.032C431.098 126.339 428.088 127.256 425.634 126.838C424.197 126.547 422.923 125.779 422.05 124.677C421.178 123.575 420.767 122.215 420.894 120.852C420.928 120.594 420.981 120.335 421.041 120.077C421.19 119.422 421.175 118.743 420.995 118.095C420.815 117.446 420.476 116.845 420.005 116.339C419.533 115.833 418.942 115.435 418.277 115.177C417.613 114.919 416.893 114.808 416.175 114.853C413.698 114.997 411.029 115.708 408.969 114.012C408.214 113.342 407.687 112.481 407.455 111.535C407.223 110.589 407.295 109.6 407.663 108.692C408.816 105.544 412.114 103.883 415.381 102.962C419.423 101.854 423.68 101.598 427.841 102.212C432.003 102.826 435.965 104.295 439.44 106.512C441.515 107.857 443.456 109.55 444.349 111.751C445.243 113.952 444.834 116.737 442.856 118.202C444.404 119.711 445.5 121.573 446.032 123.6C446.564 125.627 446.514 127.748 445.887 129.751C444.922 132.697 440.255 135.541 437.899 136.817Z" fill="#2F2E41"/>
<path d="M536 338.409C536 338.565 535.932 338.716 535.813 338.826C535.694 338.937 535.533 339 535.364 339H293.037C292.869 339 292.707 338.938 292.588 338.827C292.468 338.716 292.401 338.565 292.401 338.409C292.401 338.252 292.468 338.101 292.588 337.99C292.707 337.879 292.869 337.817 293.037 337.817H535.364C535.533 337.817 535.694 337.88 535.813 337.991C535.932 338.102 536 338.252 536 338.409Z" fill="#3F3D56"/>
</g>
<defs>
<clipPath id="clip0">
<rect width="536" height="339" fill="white"/>
</clipPath>
</defs>
</svg>
