<svg width="604" height="345" viewBox="0 0 604 345" fill="none" xmlns="http://www.w3.org/2000/svg">
<g clip-path="url(#clip0)">
<path opacity="0.1" d="M363.097 248.662C374.765 247.996 389.242 240.07 400.498 236.565C413.821 232.427 427.196 228.446 440.624 224.621C487.371 211.301 534.619 199.951 582.369 190.572C586.825 189.694 591.288 188.837 595.758 188.002C588.795 172.935 578.007 159.96 564.471 150.373C564.817 147.075 564.994 143.76 564.999 140.444C564.999 88.0265 523.167 45.5333 471.548 45.5333C455.655 45.5164 440.03 49.6241 426.195 57.456C389.659 33.3886 341.973 18.8224 289.799 18.8224C215.661 18.8224 150.578 48.2351 113.699 92.5259L287.021 121.849L393.323 139.825C272.138 143.447 150.578 147.047 29.7406 138.546C13.7895 154.002 3.69362 174.525 1.17827 196.609C-1.33709 218.693 3.88426 240.966 15.95 259.622C15.95 261.521 16.0292 263.403 16.1717 265.269C19.2498 266.152 22.2223 267.009 24.8886 267.569C67.693 276.624 110.772 284.203 154.126 290.304C122.178 310.03 83.2717 312.822 46.4193 321.176C64.2647 335.927 88.4986 344.968 115.203 344.968H512.83C555.886 344.968 590.785 314.953 590.785 277.921C597.246 267.252 601.551 255.415 603.456 243.084C523.785 250.787 443.122 244.099 363.097 248.662Z" fill="#6C63FF"/>
<path opacity="0.1" d="M604 227.312C604.043 212.05 600.419 197.002 593.436 183.437C586.452 169.871 576.313 158.187 563.874 149.369C564.218 146.072 564.394 142.759 564.402 139.444C564.402 87.0272 522.55 44.5499 470.951 44.5499C455.058 44.5329 439.431 48.6386 425.593 56.4672C389.057 32.3893 341.366 17.8178 289.191 17.8178C204.325 17.8178 131.275 56.3879 98.8786 111.697C97.0782 111.592 95.2673 111.533 93.4405 111.533C41.8365 111.533 -0.0105597 154.027 -0.0105597 206.444C-0.0467298 224.959 5.29505 243.084 15.364 258.613C15.364 305.774 59.814 344.006 114.623 344.006H512.26C555.31 344.006 590.209 313.985 590.209 276.954C599.264 261.986 604.035 244.813 604 227.312Z" fill="#6C63FF"/>
<path d="M418.856 111.422C418.217 111.965 417.468 112.364 416.66 112.59L412.917 113.933C410.884 114.663 408.761 115.398 406.618 115.133C405.419 114.985 400.282 114.229 399.506 113.293C398.323 111.845 402.468 109.714 403.883 108.493C404.204 108.262 404.501 108 404.77 107.71C405.298 107.065 405.229 106.161 405.155 105.347C404.887 103.284 404.795 101.202 404.881 99.1236C404.922 98.6281 404.992 98.1356 405.092 97.6485C405.62 95.2164 407.88 96.1046 409.664 96.7497C411.812 97.4484 413.889 98.3495 415.868 99.4408C416.47 99.7519 416.994 100.197 417.399 100.741C418.18 101.926 417.869 103.48 417.742 104.971C417.631 106.129 417.637 107.239 418.36 108.08C418.724 108.402 419.058 108.755 419.358 109.138C419.527 109.522 419.569 109.951 419.479 110.362C419.389 110.772 419.171 111.143 418.856 111.422Z" fill="#BE6F72"/>
<path d="M367.146 74.3168C367.674 71.9745 367.791 69.5583 368.424 67.2372C368.871 65.7281 369.425 64.2527 370.082 62.8224L372.41 57.3819C372.623 56.7395 373.002 56.1649 373.509 55.7164C374.051 55.3798 374.681 55.2106 375.319 55.23C377.595 55.1454 379.987 55.8539 381.539 57.5299C383.091 59.206 383.582 61.9183 382.347 63.8376C380.868 66.1481 377.643 66.6133 375.715 68.559C374.485 69.8015 373.889 71.5304 373.524 73.2382C372.563 77.6794 372.886 82.2846 372.59 86.821C372.495 88.2327 372.22 89.8453 371.006 90.5749C370.272 90.9351 369.456 91.0938 368.641 91.0349L365.177 91.093C364.596 91.093 362.49 91.4579 362.104 91.019C361.428 90.2524 362.97 86.435 363.25 85.5838C363.873 83.6963 364.639 81.8563 365.362 80.0005C365.99 78.3456 367.146 76.1091 367.146 74.3168Z" fill="#BE6F72"/>
<path d="M494.837 175.419C494.805 176.238 494.705 177.153 494.071 177.666C493.519 178.019 492.864 178.174 492.213 178.104H492.07C490.185 178.104 488.269 177.999 486.484 178.586C485.127 179.035 483.881 179.86 482.466 180.024C480.518 180.246 478.686 179.178 476.96 178.247C475.334 177.37 473.665 176.576 471.96 175.868C470.84 175.408 468.554 175.112 468.016 173.885C467.831 173.305 467.676 172.715 467.551 172.119C467.462 171.853 467.355 171.593 467.229 171.342C466.912 170.806 466.711 170.21 466.638 169.592C466.64 168.976 466.852 168.379 467.24 167.9C467.67 167.39 468.198 166.969 468.791 166.663C469.385 166.358 470.033 166.172 470.698 166.118C472.028 166.015 473.367 166.086 474.679 166.33L487.677 168.202C488.68 168.344 489.689 168.487 490.676 168.73C491.614 168.893 492.498 169.281 493.253 169.862C494.789 171.152 494.916 173.42 494.837 175.419Z" fill="#3F3D56"/>
<path d="M483.411 178.802C481.827 182.149 482.968 186.109 482.683 189.81C482.443 191.89 481.972 193.937 481.278 195.912C480.666 197.879 480.053 199.851 479.272 201.759C478.617 203.345 477.841 204.932 477.234 206.55C476.268 209.13 475.65 212.032 473.691 213.952C472.794 218.277 471.653 223.003 468.1 225.626C465.011 227.91 460.708 227.989 457.102 226.609C453.496 225.229 450.566 222.586 447.984 219.736C445.402 216.886 443.095 213.782 440.323 211.128C438.735 209.635 437.047 208.252 435.271 206.988C433.483 205.688 431.644 204.465 429.753 203.319C428.596 202.526 427.299 201.961 425.931 201.654C424.807 201.438 423.644 201.665 422.684 202.288C422.466 202.437 422.269 202.615 422.098 202.817C421.628 203.475 421.271 204.208 421.042 204.985C418.824 210.769 412.874 213.74 408.122 217.684L403.782 221.285C403.191 221.777 402.536 222.496 402.827 223.209C403.027 223.57 403.349 223.848 403.735 223.992C406.259 225.24 409.221 225.742 411.301 227.645C412.061 228.343 412.79 229.263 413.819 229.316C414.363 229.284 414.898 229.165 415.403 228.962C416.198 228.747 417.031 228.719 417.838 228.88C418.645 229.042 419.404 229.388 420.055 229.892C420.424 230.254 420.853 230.549 421.322 230.765C421.714 230.869 422.123 230.894 422.525 230.839C423.65 230.76 424.843 230.659 425.852 231.161C426.86 231.664 427.689 232.848 428.866 232.933C429.442 232.975 430.128 232.785 430.677 232.837C430.829 232.842 430.976 232.883 431.109 232.957C431.241 233.03 431.354 233.134 431.438 233.26C431.561 233.551 431.644 233.857 431.686 234.17C431.902 234.915 432.631 235.37 433.106 235.983C433.835 236.924 433.94 238.204 433.866 239.394C433.627 243.113 431.972 246.599 429.241 249.133C428.466 249.926 427.477 250.477 426.395 250.719C425.854 250.832 425.29 250.772 424.784 250.547C424.278 250.323 423.856 249.944 423.576 249.466C423.458 249.054 423.28 248.662 423.048 248.302C422.198 247.367 420.292 248.361 419.511 247.361C419.025 246.737 419.373 245.738 418.909 245.093C418.444 244.448 417.325 244.564 416.464 244.527C415.456 244.475 414.521 243.999 413.545 243.75C411.961 243.338 410.303 243.491 408.682 243.38C407.335 243.261 405.998 243.049 404.68 242.746L397.964 241.371C393.688 240.499 389.395 239.616 385.325 238.056C383.767 237.464 382.199 236.734 381.101 235.465C380.216 234.35 379.647 233.017 379.454 231.606C378.498 225.964 383.566 221.142 384.205 215.458C384.432 213.386 385.261 211.43 386.043 209.505C387.475 206.065 388.904 202.623 390.33 199.179C390.56 198.538 390.861 197.924 391.227 197.35C391.835 196.614 392.52 195.945 393.271 195.357C395.271 193.538 396.707 191.181 397.405 188.568C397.456 188.277 397.578 188.003 397.758 187.769C397.945 187.613 398.151 187.479 398.371 187.373C398.748 187.127 399.032 186.761 399.176 186.335C399.321 185.908 399.318 185.445 399.168 185.02C399.496 184.993 399.803 184.849 400.034 184.614C400.264 184.379 400.403 184.069 400.425 183.741C400.386 183.454 400.404 183.163 400.477 182.884C400.604 182.609 400.921 182.472 401.106 182.228C401.407 181.832 401.301 181.277 401.253 180.78C401.222 180.465 401.222 180.148 401.253 179.833C401.369 178.714 401.869 177.669 402.668 176.878C403.93 175.635 405.725 175.958 407.468 175.662C409.206 175.286 410.903 174.742 412.536 174.039C417.117 172.231 421.941 171.114 426.85 170.724C431.782 170.335 436.737 171.125 441.305 173.029C441.97 173.298 442.597 173.654 443.169 174.086C443.576 174.4 443.909 174.799 444.146 175.255C444.341 175.814 444.581 176.357 444.864 176.878C445.429 177.65 446.495 177.898 447.113 178.628C447.731 179.357 447.784 180.589 448.296 181.494C449.03 182.784 450.73 183.381 451.237 184.782C451.395 185.226 451.416 185.713 451.532 186.173C451.817 187.325 452.673 188.235 453.428 189.144C456.195 192.459 457.968 196.493 458.538 200.776C458.707 198.095 460.508 195.721 462.762 194.241C463.369 193.844 464.072 193.406 464.193 192.686C464.346 191.777 463.464 190.968 463.522 190.043C463.587 189.591 463.769 189.164 464.05 188.806C465.057 187.345 466.161 185.955 467.356 184.645C468.005 183.931 468.734 183.059 468.464 182.117C468.258 181.414 467.54 181.002 467.144 180.388C466.913 180.023 466.795 179.597 466.804 179.164C466.814 178.732 466.95 178.312 467.197 177.956C467.567 177.454 468.153 177.089 468.332 176.492C468.538 175.789 468.079 175.027 468.221 174.303C468.414 173.723 468.798 173.225 469.309 172.891C470.01 172.253 470.806 171.728 471.669 171.337C473.063 170.808 474.615 171.004 476.093 171.21C478.564 171.554 481.336 172.082 482.73 174.155C483.622 175.45 484.076 177.417 483.411 178.802Z" fill="#65617D"/>
<path opacity="0.1" d="M494.836 175.419C494.805 176.238 494.704 177.153 494.071 177.666C493.519 178.019 492.864 178.174 492.212 178.104H492.07C492.286 177.005 493.622 176.376 493.854 175.26C493.894 174.917 493.863 174.57 493.763 174.24C493.663 173.91 493.497 173.604 493.274 173.341C492.144 171.813 490.328 170.967 488.522 170.348C483.421 168.597 477.956 168.187 472.651 169.158C471.209 169.394 469.805 169.826 468.48 170.443C468.041 170.718 467.618 171.019 467.213 171.342C466.896 170.806 466.695 170.21 466.622 169.592C466.624 168.976 466.836 168.379 467.223 167.9C467.654 167.39 468.181 166.969 468.775 166.663C469.368 166.358 470.016 166.172 470.682 166.118C472.012 166.015 473.351 166.086 474.663 166.33L487.661 168.202C488.664 168.344 489.673 168.487 490.66 168.73C491.598 168.893 492.482 169.281 493.237 169.862C494.789 171.152 494.916 173.42 494.836 175.419Z" fill="black"/>
<path d="M414.553 105.924C420.385 105.924 425.113 101.189 425.113 95.3493C425.113 89.5092 420.385 84.7749 414.553 84.7749C408.721 84.7749 403.994 89.5092 403.994 95.3493C403.994 101.189 408.721 105.924 414.553 105.924Z" fill="#BE6F72"/>
<path d="M409.669 114.658L405.393 113.072L403.587 112.406C402.851 112.097 402.077 111.891 401.285 111.792C399.215 111.634 397.267 113.014 396.164 114.774C395.06 116.535 394.643 118.634 394.289 120.68C393.804 123.479 393.392 126.288 393.054 129.108C392.69 131.654 392.505 134.223 392.5 136.796C392.621 143.341 394.004 149.797 395.525 156.168C396.27 158.993 396.832 161.862 397.209 164.76C397.336 165.954 397.394 167.155 397.521 168.355C397.658 169.703 397.88 171.035 398.101 172.373L399.374 179.971C400.958 178.845 402.758 177.856 404.706 177.798C406.433 177.734 408.143 178.379 409.865 178.231C411.844 178.067 413.597 176.878 415.551 176.513C417.061 176.233 418.618 176.455 420.155 176.381C424.125 176.18 427.773 173.98 431.733 173.626C434.875 173.341 437.995 174.229 441.142 174.414C442.018 174.467 443.206 174.187 443.206 173.304C443.206 172.69 442.594 172.283 442.06 171.977C439.547 170.461 437.155 168.752 434.906 166.864C432.826 165.214 430.714 163.522 429.283 161.291C425.836 155.925 427.018 148.665 424.078 143.003C421.686 138.403 424.078 132.375 424.078 127.189C424.078 124.603 424.078 121.986 423.47 119.475C423.091 118.07 422.618 116.692 422.055 115.351L420.002 110.143C419.959 109.991 419.875 109.853 419.759 109.746C419.621 109.651 419.457 109.601 419.289 109.604C418.055 109.529 416.839 109.92 415.878 110.698C414.912 111.486 414.294 112.617 413.344 113.437C412.304 114.341 410.963 115.134 409.669 114.658Z" fill="#E3E8F4"/>
<path d="M416.57 111.655C416.908 110.206 417.272 108.699 418.238 107.568C419.205 106.436 420.968 105.839 422.214 106.648C423.629 107.568 423.687 109.693 424.896 110.878C425.952 111.893 427.536 111.972 428.972 112.104C431.554 112.34 434.091 112.938 436.506 113.881C436.977 114.027 437.407 114.285 437.758 114.632C438.418 115.382 438.286 116.535 438.613 117.471C439.062 118.676 440.302 119.443 440.783 120.643C441.311 121.976 440.783 123.467 440.339 124.836C439.542 127.294 439.041 129.848 438.264 132.317C437.488 134.786 436.385 137.219 434.569 139.08C433.766 139.904 432.573 140.666 431.517 140.174L431.11 143.108C430.992 143.728 430.992 144.365 431.11 144.985C431.172 145.296 431.319 145.582 431.536 145.812C431.753 146.042 432.03 146.207 432.335 146.286C432.414 146.741 432.895 146.958 433.286 147.206C433.574 147.404 433.82 147.656 434.011 147.95C434.201 148.244 434.331 148.572 434.393 148.916C434.455 149.261 434.449 149.614 434.374 149.956C434.299 150.297 434.157 150.621 433.956 150.907C433.624 151.356 433.133 151.711 432.974 152.245C432.737 153.017 433.301 153.831 433.988 154.254C434.674 154.677 435.482 154.872 436.179 155.28C437.626 156.115 438.402 157.759 438.898 159.356C439.268 160.561 439.574 161.867 440.482 162.745C440.83 163.078 441.247 163.332 441.58 163.681C442.156 164.362 442.488 165.216 442.525 166.108C442.67 167.213 442.427 168.334 441.839 169.28C440.783 170.792 438.813 171.242 437.087 171.924C434.283 173.076 431.976 175.138 429.505 176.894C428.499 177.705 427.313 178.264 426.047 178.522C424.337 178.749 422.652 177.993 420.931 177.925C419.901 177.934 418.877 178.069 417.879 178.326L414.712 179.014C414.881 176.555 413.529 174.091 412.774 171.749C411.348 167.34 411.084 162.623 411.422 158.002C411.76 153.381 412.7 148.824 413.629 144.288C414.279 141.115 414.215 137.8 415.213 134.718C416.148 131.752 417.483 128.902 417.974 125.814C418.777 120.818 415.44 116.583 416.57 111.655Z" fill="#3F3D56"/>
<path d="M440.588 121.431C440.879 121.968 441.084 122.548 441.195 123.149C441.439 124.081 441.896 124.942 442.53 125.666C443.062 126.135 443.533 126.668 443.935 127.252C444.421 128.172 444.236 129.293 444.463 130.298C444.727 131.392 445.492 132.344 445.603 133.47C445.606 133.793 445.636 134.114 445.693 134.432C446.036 135.712 447.916 136.018 448.333 137.298C448.613 138.128 448.132 139.032 448.222 139.904C448.288 140.174 448.304 140.454 448.27 140.729C448.15 141.041 447.941 141.31 447.668 141.501C445.92 143.173 444.711 145.329 444.194 147.692C443.685 150.044 443.418 152.441 443.396 154.846L441.332 152.113C441.113 151.781 440.834 151.494 440.508 151.267C440.244 151.108 439.938 151.029 439.669 150.87C438.887 150.426 438.581 149.485 438.28 148.639C437.444 146.297 436.192 144.126 434.584 142.231C433.745 141.242 432.768 140.248 432.583 138.963C432.528 138.373 432.56 137.778 432.678 137.197C433.206 133.734 433.771 130.187 435.456 127.115C436.242 125.677 437.261 124.376 438.016 122.917C438.523 121.949 439.236 119.432 440.588 121.431Z" fill="#3F3D56"/>
<path d="M388.503 124.757C388.513 125.202 388.399 125.641 388.176 126.026C387.974 126.26 387.711 126.433 387.416 126.527C387.122 126.62 386.807 126.629 386.507 126.554C385.906 126.403 385.34 126.137 384.839 125.772C383.368 124.841 381.896 123.909 380.425 122.975C379.604 122.479 378.812 121.935 378.054 121.346C376.896 120.367 375.847 119.267 374.924 118.063C372.358 114.891 370.087 111.449 367.231 108.546C366.455 107.753 365.647 106.992 364.897 106.162C363.873 104.962 362.931 103.693 362.078 102.365C361.254 101.144 360.399 99.7905 360.542 98.3312C360.626 97.5064 361.022 96.7451 361.138 95.9256C361.254 95.106 360.943 94.1068 360.151 93.8847C360.057 93.8611 359.962 93.8452 359.866 93.8371C359.709 93.8205 359.555 93.7868 359.406 93.7367C358.673 93.43 358.783 92.2933 359.311 91.6958C359.839 91.0984 360.621 90.7653 361.101 90.1097C361.325 89.7206 361.575 89.3478 361.851 88.994C362.205 88.6905 362.627 88.4781 363.081 88.3755C366.127 87.4767 369.348 87.3549 372.453 88.0212C372.981 88.1375 373.583 88.349 373.741 88.8619C373.804 89.1117 373.804 89.3734 373.741 89.6232C373.508 90.6657 373.374 91.7278 373.34 92.7955C373.339 93.0181 373.351 93.2406 373.377 93.4617C373.625 95.7035 375.077 97.6016 376.492 99.3517C378.171 101.435 379.876 103.502 381.587 105.564C382.512 106.759 383.546 107.865 384.675 108.869C385.731 109.746 387.099 110.455 387.922 111.581C388.593 112.49 388.376 113.733 388.45 114.827C388.696 118.132 388.713 121.45 388.503 124.757Z" fill="#3F3D56"/>
<path d="M455.555 146.815C456.077 146.307 456.547 145.749 456.96 145.149C457.404 144.406 457.758 143.613 458.016 142.786L461.078 134.089C461.564 132.714 462.049 131.334 462.662 129.996C463.295 128.553 464.045 127.162 464.737 125.766C466.516 122.093 467.891 118.237 468.839 114.267C469.006 113.721 469.062 113.148 469.003 112.58C468.855 111.666 468.163 110.952 467.503 110.301C466.84 109.584 466.083 108.958 465.254 108.44C464.838 108.181 464.374 108.007 463.89 107.929C463.406 107.851 462.911 107.87 462.435 107.986C461.083 108.382 460.233 109.767 459.922 111.158C459.61 112.548 459.726 113.971 459.594 115.388C459.404 117.418 458.707 119.38 458.538 121.415C458.449 122.594 458.538 123.784 458.396 124.958C458.136 126.499 457.599 127.98 456.812 129.33C455.096 132.545 452.779 135.399 449.985 137.737C449.22 138.302 448.531 138.965 447.937 139.709C447.44 140.452 447.104 141.292 446.949 142.173C446.599 143.514 446.751 144.938 447.377 146.175C448.238 147.645 449.89 148.29 451.469 148.618C453.602 149.062 454.093 148.332 455.555 146.815Z" fill="#BE6F72"/>
<path d="M414.617 80.027C415.071 79.1716 415.767 78.4693 416.618 78.0076C417.469 77.546 418.436 77.3454 419.4 77.4309C420.371 77.6031 421.274 78.044 422.008 78.7037C422.741 79.3634 423.275 80.2156 423.55 81.1637C423.798 81.9515 423.898 82.8239 424.331 83.5007C424.986 84.5211 426.2 84.8172 427.109 85.5574C427.651 86.0618 428.087 86.6696 428.392 87.345C428.696 88.0205 428.863 88.7501 428.883 89.491C428.933 91.0045 428.695 92.5136 428.18 93.9376C427.962 94.5451 427.786 95.167 427.652 95.7987C427.547 96.412 427.536 97.0359 427.441 97.6492C427.324 98.4444 427.049 99.2082 426.633 99.8956C426.217 100.583 425.668 101.18 425.018 101.652C424.833 101.803 424.602 101.887 424.363 101.89C423.951 101.842 423.698 101.361 423.545 100.927C422.705 98.5004 422.906 95.5343 421.359 93.5992C420.655 92.8186 419.805 92.1844 418.856 91.7328C418.47 91.483 418.034 91.3189 417.579 91.2517C416.909 91.2877 416.266 91.5234 415.731 91.9284C414.616 92.677 413.38 93.2245 412.077 93.5463C411.427 93.7005 410.751 93.7075 410.098 93.5666C409.445 93.4257 408.831 93.1406 408.302 92.7321C407.574 92.1294 407.04 91.2252 406.233 90.7547C405.425 90.2841 404.58 90.3106 403.783 89.988C403.275 89.7716 402.823 89.4419 402.461 89.0241C402.1 88.6062 401.838 88.1112 401.696 87.5768C401.555 87.0424 401.537 86.4827 401.644 85.9403C401.751 85.3979 401.981 84.8872 402.315 84.4471C402.843 83.8126 403.624 83.4531 404.094 82.7499C404.701 81.8405 404.649 80.5927 404.939 79.5035C405.111 78.8144 405.444 78.1763 405.912 77.6421C406.379 77.1079 406.967 76.6929 407.626 76.4317C408.266 76.2141 408.952 76.1725 409.614 76.3111C410.275 76.4496 410.887 76.7633 411.386 77.2195C411.914 77.6953 412.336 78.3086 412.853 78.8056C413.364 79.2953 413.989 79.6487 414.672 79.8335C415.355 80.0182 416.073 80.0284 416.76 79.8631" fill="#3F3D56"/>
<path d="M449.103 137.848C448.776 140.046 449.25 142.289 450.438 144.165C451.627 146.042 453.451 147.428 455.576 148.068C455.318 149.321 454.024 150.014 453.111 150.907C451.822 152.16 451.157 154.037 449.637 154.989C447.942 156.046 445.761 155.634 443.829 155.19C443.653 155.17 443.491 155.085 443.375 154.952C443.335 154.888 443.307 154.819 443.29 154.746C442.652 152.403 442.234 149.903 442.889 147.555C443.417 145.556 444.684 143.854 445.698 142.088C446.712 140.322 446.807 138.429 449.103 137.848Z" fill="#3F3D56"/>
<path d="M493.274 169.164C492.519 168.583 491.635 168.195 490.697 168.032C489.71 167.805 488.702 167.662 487.698 167.504L474.7 165.627C473.388 165.383 472.049 165.312 470.719 165.415C470.051 165.47 469.401 165.657 468.807 165.966C468.212 166.274 467.685 166.698 467.255 167.213C466.868 167.692 466.656 168.289 466.653 168.905C466.726 169.525 466.927 170.123 467.245 170.66C467.371 170.911 467.478 171.171 467.567 171.437C467.691 172.035 467.846 172.626 468.031 173.208C468.089 173.334 468.164 173.452 468.253 173.557C468.256 173.587 468.256 173.617 468.253 173.647C468.111 174.377 468.57 175.138 468.364 175.841C468.185 176.444 467.599 176.809 467.229 177.311C466.982 177.668 466.846 178.089 466.837 178.522C466.827 178.955 466.945 179.382 467.176 179.749C467.572 180.362 468.29 180.78 468.496 181.483C468.765 182.408 468.037 183.302 467.387 184.016C466.193 185.329 465.088 186.723 464.082 188.187C463.799 188.547 463.617 188.976 463.554 189.43C463.496 190.35 464.378 191.158 464.225 192.073C464.103 192.792 463.401 193.231 462.794 193.659C460.55 195.14 458.75 197.519 458.57 200.21C457.994 195.928 456.223 191.896 453.459 188.578C452.704 187.669 451.876 186.754 451.564 185.602C451.448 185.142 451.427 184.65 451.268 184.206C450.74 182.805 449.061 182.202 448.328 180.912C447.8 180.003 447.8 178.834 447.145 178.036C446.49 177.237 445.461 177.058 444.896 176.286C444.614 175.763 444.374 175.218 444.178 174.657C443.941 174.2 443.608 173.799 443.201 173.483C443.123 173.421 443.042 173.363 442.958 173.309C443.046 173.23 443.116 173.134 443.164 173.027C443.212 172.919 443.238 172.803 443.238 172.685C443.238 172.066 442.626 171.659 442.092 171.353C441.406 170.961 440.735 170.538 440.081 170.1C440.795 169.767 441.414 169.259 441.881 168.624C442.467 167.677 442.709 166.557 442.567 165.452C442.531 164.56 442.199 163.706 441.622 163.025C441.29 162.671 440.873 162.417 440.524 162.084C439.621 161.201 439.315 159.895 438.94 158.69C438.444 157.104 437.668 155.438 436.221 154.598C435.524 154.19 434.711 154 434.03 153.572C433.349 153.144 432.779 152.335 433.016 151.557C433.175 151.029 433.666 150.664 433.998 150.214C434.396 149.633 434.548 148.919 434.422 148.226C434.297 147.533 433.904 146.918 433.328 146.513C432.937 146.265 432.457 146.048 432.378 145.593C432.072 145.514 431.795 145.35 431.578 145.12C431.361 144.89 431.214 144.603 431.153 144.293C431.034 143.671 431.034 143.032 431.153 142.411C431.29 141.427 431.425 140.447 431.559 139.471C431.792 139.568 432.041 139.618 432.293 139.618C432.545 139.618 432.794 139.568 433.027 139.471C433.484 140.213 434.015 140.908 434.611 141.543C436.219 143.445 437.471 145.621 438.307 147.967C438.608 148.813 438.914 149.76 439.695 150.209C439.965 150.363 440.271 150.442 440.535 150.606C440.86 150.833 441.14 151.12 441.358 151.452C441.992 152.292 442.625 153.128 443.254 153.968L443.285 154.095C443.303 154.17 443.331 154.241 443.37 154.307C443.487 154.439 443.649 154.522 443.824 154.539C445.767 154.989 447.947 155.401 449.632 154.338C451.152 153.387 451.817 151.505 453.106 150.246C454.019 149.353 455.313 148.66 455.571 147.402C455.263 147.306 454.96 147.195 454.663 147.069C454.927 146.804 455.191 146.498 455.55 146.149C456.072 145.637 456.542 145.076 456.955 144.473C457.4 143.728 457.755 142.933 458.011 142.104C459.028 139.199 460.049 136.293 461.073 133.385C461.559 132.011 462.044 130.625 462.657 129.288C463.29 127.839 464.04 126.449 464.732 125.026C466.517 121.327 467.894 117.445 468.839 113.447C469.007 112.902 469.063 112.328 469.003 111.761C468.855 110.846 468.163 110.127 467.504 109.477C466.84 108.757 466.084 108.13 465.254 107.61C464.838 107.351 464.374 107.177 463.89 107.099C463.406 107.021 462.912 107.04 462.435 107.156C461.083 107.552 460.233 108.937 459.922 110.328C459.61 111.718 459.726 113.151 459.595 114.558C459.404 116.593 458.708 118.56 458.539 120.601C458.449 121.78 458.539 122.975 458.396 124.154C458.136 125.697 457.6 127.18 456.812 128.532C455.1 131.755 452.782 134.617 449.985 136.959C449.663 137.229 449.331 137.488 449.014 137.779C449.014 137.552 449.051 137.319 449.083 137.092C448.853 137.152 448.628 137.231 448.412 137.33C448.439 137.063 448.412 136.793 448.333 136.536C447.91 135.273 446.031 134.95 445.693 133.666C445.637 133.348 445.607 133.026 445.603 132.703C445.492 131.577 444.727 130.625 444.463 129.531C444.22 128.521 444.405 127.416 443.935 126.48C443.534 125.895 443.063 125.362 442.53 124.894C441.896 124.168 441.439 123.305 441.195 122.372C441.126 122.113 441.063 121.843 440.989 121.584C441.069 120.998 441.004 120.4 440.799 119.845C440.318 118.65 439.078 117.883 438.629 116.673C438.28 115.731 438.433 114.558 437.773 113.828C437.423 113.479 436.994 113.22 436.522 113.072C434.106 112.13 431.57 111.53 428.988 111.29C427.541 111.158 425.947 111.084 424.912 110.064C423.703 108.879 423.645 106.748 422.23 105.834C420.984 105.025 419.221 105.622 418.254 106.759C418.109 106.926 417.975 107.103 417.853 107.288C417.677 106.579 417.639 105.843 417.742 105.12C417.742 104.94 417.779 104.755 417.795 104.591C420.179 103.811 422.208 102.207 423.518 100.065C423.518 100.065 423.518 100.065 423.518 100.097L423.582 100.261C423.735 100.647 423.978 101.017 424.337 101.059C424.575 101.057 424.806 100.973 424.991 100.821C425.31 100.6 425.604 100.345 425.868 100.06C426.001 99.9121 426.128 99.7588 426.248 99.6002C426.491 99.27 426.7 98.9156 426.871 98.5427C427.133 97.9816 427.311 97.3848 427.399 96.7715C427.494 96.1582 427.504 95.529 427.61 94.9157C427.709 94.441 427.837 93.973 427.995 93.5146C428.048 93.3613 428.101 93.2079 428.148 93.0546C428.196 92.9013 428.265 92.6951 428.317 92.5259C428.648 91.4385 428.826 90.3103 428.845 89.1738C428.845 88.9835 428.845 88.7931 428.845 88.6028C428.826 87.8611 428.659 87.1307 428.355 86.4543C428.05 85.778 427.614 85.1692 427.071 84.6638C426.163 83.9183 424.96 83.6064 424.294 82.5965C423.861 81.9198 423.766 81.0474 423.513 80.2543C423.239 79.3052 422.705 78.4519 421.972 77.7912C421.238 77.1305 420.334 76.6888 419.363 76.5163C418.193 76.3878 417.019 76.7112 416.079 77.4204L416.005 77.4785C415.482 77.8789 415.038 78.3738 414.696 78.9378C413.998 78.7454 413.359 78.382 412.837 77.8804C412.309 77.3887 411.903 76.7701 411.37 76.2942C410.871 75.8372 410.26 75.5225 409.598 75.383C408.937 75.2435 408.251 75.2843 407.61 75.5011C406.951 75.7656 406.364 76.1829 405.897 76.7187C405.429 77.2545 405.096 77.8936 404.923 78.5836C404.633 79.6727 404.685 80.9258 404.078 81.8352C403.608 82.5437 402.838 82.8926 402.299 83.5377C401.964 83.9461 401.736 84.4311 401.634 84.9493C401.57 85.2392 401.54 85.5355 401.544 85.8323C401.544 85.9645 401.544 86.0967 401.576 86.2236C401.576 86.2236 401.576 86.2659 401.576 86.287C401.594 86.4319 401.624 86.5751 401.665 86.7153C401.816 87.2513 402.084 87.7464 402.452 88.164C402.801 88.5638 403.236 88.8785 403.725 89.0839C403.924 89.1618 404.129 89.2272 404.337 89.2796L404.965 89.4223L405.187 89.4752C404.429 90.9008 404.008 92.4817 403.957 94.0961C403.905 95.7104 404.225 97.315 404.891 98.7859C404.891 98.934 404.854 99.082 404.839 99.2301C404.753 101.312 404.844 103.397 405.113 105.464C405.187 106.283 405.229 107.187 404.728 107.838C404.499 108.093 404.242 108.322 403.962 108.52C404.247 108.15 404.538 107.785 404.833 107.42C404.089 106.669 402.911 106.574 401.856 106.648C399.812 106.801 397.828 107.408 396.048 108.424C394.865 109.107 393.651 110.011 392.299 109.852C391.502 109.762 390.715 109.323 389.939 109.535C389.503 109.714 389.096 109.956 388.73 110.254C388.441 110.461 388.093 110.569 387.738 110.561C386.909 109.54 385.626 108.847 384.633 108.017C383.503 107.01 382.469 105.901 381.544 104.702C379.834 102.635 378.128 100.562 376.45 98.474C375.035 96.7186 373.583 94.8205 373.334 92.5735C373.309 92.3506 373.297 92.1264 373.297 91.902C373.332 90.8343 373.466 89.7722 373.699 88.7297C373.761 88.478 373.761 88.2147 373.699 87.963C373.54 87.4343 372.933 87.2387 372.411 87.1224C372.479 86.7153 372.527 86.2976 372.553 85.901C372.849 81.354 372.527 76.733 373.488 72.2812C373.852 70.5682 374.448 68.834 375.679 67.5915C377.606 65.6405 380.832 65.17 382.31 62.8594C383.545 60.9349 383.054 58.212 381.502 56.5148C379.95 54.8176 377.558 54.125 375.283 54.2096C374.644 54.1877 374.014 54.357 373.472 54.696C372.965 55.1465 372.586 55.7228 372.374 56.3668L370.109 61.8813C369.452 63.317 368.898 64.7977 368.451 66.312C367.817 68.6278 367.675 71.0705 367.173 73.4074C367.173 75.205 366.017 77.4468 365.383 79.1017C364.676 80.9628 363.91 82.8027 363.271 84.7008C363.113 85.1767 362.559 86.5884 362.215 87.8732C362.086 87.9488 361.965 88.0393 361.856 88.1428C361.581 88.4966 361.33 88.8694 361.107 89.2584C360.626 89.8929 359.845 90.2312 359.317 90.8446C358.789 91.4579 358.678 92.584 359.412 92.8907C359.561 92.9409 359.715 92.9746 359.871 92.9912C359.967 92.9993 360.063 93.0152 360.156 93.0387C360.948 93.2608 361.26 94.2601 361.144 95.0849C361.027 95.9097 360.616 96.6711 360.547 97.4959C360.404 98.9551 361.26 100.314 362.083 101.541C362.936 102.87 363.878 104.14 364.903 105.342C365.647 106.177 366.487 106.928 367.236 107.732C370.093 110.672 372.363 114.108 374.929 117.302C375.852 118.507 376.902 119.609 378.06 120.59C378.816 121.183 379.608 121.728 380.43 122.224L384.844 125.026C385.345 125.394 385.911 125.661 386.513 125.814C386.709 125.841 386.908 125.841 387.104 125.814C387.13 125.946 387.152 126.073 387.183 126.205C387.526 127.591 388.281 128.849 388.366 130.261C388.45 131.672 388.324 133.116 388.424 134.543C388.519 135.86 388.809 137.187 388.883 138.482C389.031 140.978 388.419 143.442 387.827 145.884C386.935 149.458 386.396 153.107 384.659 156.348C384.174 157.241 383.604 158.151 383.604 159.171C383.604 159.293 383.604 159.419 383.635 159.541L382.843 159.99C382.611 160.123 382.379 160.255 382.167 160.392C381.164 161.048 380.093 161.772 379.681 162.904C379.348 163.818 379.501 164.865 379.1 165.754C379.081 165.793 379.06 165.832 379.037 165.87C378.614 166.695 377.775 167.308 377.585 168.212C377.442 168.905 377.717 169.64 377.585 170.327C377.585 170.327 377.585 170.327 377.585 170.353C377.464 170.699 377.369 171.052 377.3 171.411C377.294 171.528 377.305 171.646 377.331 171.76C377.432 172.16 377.653 172.52 377.965 172.791C378.155 172.974 378.362 173.138 378.583 173.283C378.808 173.431 379.04 173.568 379.279 173.695L379.417 173.769C379.617 173.875 379.818 173.975 380.024 174.07L380.161 174.128C380.399 174.234 380.642 174.329 380.884 174.414L381.053 174.467C381.243 174.53 381.439 174.588 381.634 174.636L381.766 174.678L381.888 174.705L382.416 174.816L382.611 174.853C382.843 174.892 383.081 174.923 383.324 174.948H383.535C383.714 174.948 383.889 174.974 384.063 174.98H384.311C384.496 174.98 384.675 174.98 384.839 174.98H385.029C385.277 174.98 385.525 174.943 385.773 174.911H385.853C386.074 174.879 386.296 174.842 386.518 174.795L386.687 174.758C386.893 174.71 387.099 174.662 387.305 174.599L387.415 174.567C387.664 174.493 387.912 174.414 388.155 174.319C388.995 173.973 389.81 173.568 390.594 173.108C391.122 172.817 391.65 172.521 392.178 172.251C392.569 172.054 392.971 171.877 393.382 171.723C394.38 171.296 395.466 171.114 396.549 171.194C397.084 171.267 397.613 171.375 398.133 171.517C398.133 171.575 398.133 171.633 398.133 171.691C398.563 174.229 398.987 176.767 399.406 179.305C400.097 178.806 400.828 178.366 401.592 177.988C401.449 178.371 401.355 178.771 401.312 179.178C401.28 179.492 401.28 179.809 401.312 180.124C401.359 180.626 401.465 181.182 401.164 181.578C400.979 181.821 400.636 181.959 400.536 182.234C400.462 182.515 400.444 182.808 400.483 183.096C400.461 183.424 400.322 183.734 400.092 183.969C399.861 184.204 399.554 184.348 399.226 184.375C399.377 184.801 399.381 185.265 399.236 185.693C399.092 186.12 398.807 186.487 398.429 186.733C398.208 186.84 398.002 186.975 397.817 187.135C397.636 187.369 397.515 187.642 397.463 187.933C396.765 190.552 395.33 192.914 393.329 194.738C392.578 195.329 391.893 195.999 391.285 196.736C390.91 197.308 390.6 197.92 390.362 198.561C388.954 202.008 387.525 205.457 386.074 208.908C385.272 210.837 384.491 212.799 384.237 214.877C383.604 220.576 378.535 225.409 379.485 231.066C379.677 232.479 380.246 233.815 381.133 234.931C382.189 236.205 383.772 236.935 385.356 237.527C389.427 239.113 393.719 239.98 397.996 240.853L404.712 242.233C406.03 242.536 407.367 242.748 408.714 242.867C410.335 242.978 411.998 242.825 413.576 243.237C414.553 243.491 415.488 243.962 416.496 244.015C417.362 244.062 418.429 243.877 418.941 244.586C419.453 245.294 419.057 246.23 419.543 246.859C420.324 247.858 422.23 246.859 423.08 247.8C423.312 248.162 423.49 248.555 423.608 248.969C423.737 249.224 423.917 249.451 424.136 249.635C424.188 249.933 424.209 250.236 424.199 250.539C424.089 251.767 423.834 252.977 423.439 254.145C422.805 256.291 422.174 258.44 421.544 260.59C421.303 261.349 421.126 262.127 421.016 262.916C420.976 263.299 420.976 263.686 421.016 264.069C421.126 265.237 421.797 266.443 422.911 266.824C423.775 267.052 424.694 266.939 425.477 266.506C426.232 266.111 426.941 265.633 427.589 265.079C428.758 264.193 429.785 263.134 430.635 261.938C433.275 257.983 432.42 252.633 434.273 248.26C435.503 245.342 437.9 242.973 438.697 239.896C438.884 239.31 438.906 238.685 438.761 238.088C438.428 237.03 437.304 236.427 436.253 236.047H436.205C435.342 235.739 434.461 235.487 433.565 235.291C433.344 235.243 433.117 235.206 432.89 235.169C432.387 234.76 431.988 234.238 431.723 233.646C431.681 233.332 431.598 233.024 431.475 232.732C431.391 232.606 431.278 232.502 431.146 232.428C431.013 232.354 430.866 232.314 430.714 232.309C430.186 232.256 429.479 232.446 428.903 232.404C427.726 232.319 426.945 231.161 425.889 230.627C424.833 230.093 423.687 230.226 422.563 230.305C422.16 230.36 421.751 230.335 421.359 230.231C420.89 230.015 420.461 229.72 420.092 229.358C419.442 228.852 418.683 228.504 417.876 228.342C417.069 228.179 416.235 228.207 415.44 228.423C414.935 228.627 414.4 228.748 413.856 228.782C412.827 228.724 412.098 227.804 411.338 227.106C409.258 225.197 406.296 224.695 403.772 223.442C403.386 223.298 403.064 223.021 402.864 222.66C402.574 221.941 403.228 221.221 403.82 220.73L408.159 217.119C412.911 213.164 418.851 210.187 421.058 204.387C421.288 203.609 421.645 202.875 422.114 202.214C422.285 202.012 422.482 201.834 422.7 201.685C423.66 201.062 424.823 200.835 425.947 201.051C427.316 201.358 428.614 201.925 429.769 202.722C431.66 203.867 433.499 205.101 435.287 206.423C437.058 207.69 438.742 209.075 440.329 210.568C443.101 213.211 445.408 216.347 447.99 219.196C450.571 222.046 453.523 224.706 457.108 226.07C460.693 227.434 465.027 227.376 468.105 225.086C471.659 222.443 472.799 217.716 473.697 213.381C475.677 211.467 476.273 208.553 477.239 205.979C477.846 204.345 478.623 202.806 479.277 201.178C480.059 199.264 480.671 197.286 481.284 195.314C481.978 193.334 482.449 191.282 482.688 189.197C482.941 185.903 482.06 182.398 482.984 179.305C484.203 179.035 485.312 178.348 486.51 177.946C488.295 177.359 490.206 177.454 492.096 177.465H492.218C492.869 177.534 493.525 177.379 494.076 177.026C494.71 176.497 494.81 175.593 494.842 174.773C494.916 172.748 494.789 170.475 493.274 169.164ZM416.776 78.9748C416.339 79.083 415.888 79.1152 415.44 79.07L416.776 78.9748Z" fill="url(#paint0_linear)"/>
<path d="M401.897 107.531C399.854 107.68 397.869 108.285 396.09 109.302C394.907 109.979 393.693 110.888 392.341 110.724C391.544 110.635 390.757 110.196 389.981 110.407C389.544 110.584 389.136 110.826 388.772 111.126C388.587 111.274 388.368 111.37 388.135 111.407C387.901 111.444 387.663 111.42 387.442 111.338L386.914 118.655C386.713 121.436 386.518 124.275 387.183 126.988C387.526 128.373 388.281 129.631 388.365 131.038C388.45 132.444 388.323 133.888 388.424 135.31C388.519 136.626 388.809 137.922 388.883 139.238C389.031 141.723 388.418 144.187 387.827 146.603C386.935 150.167 386.396 153.81 384.659 157.035C384.173 157.928 383.603 158.838 383.603 159.853C383.603 159.98 383.603 160.101 383.635 160.223C383.107 160.514 382.616 160.789 382.167 161.074C381.164 161.725 380.092 162.449 379.68 163.575C379.348 164.49 379.501 165.537 379.1 166.42C378.698 167.303 377.78 167.932 377.579 168.884C377.436 169.576 377.711 170.306 377.579 170.998C377.459 171.357 377.362 171.722 377.289 172.093C377.236 172.886 377.906 173.526 378.572 173.959C379.542 174.6 380.613 175.071 381.739 175.355L384.891 162.824C387.765 157.503 390.156 151.935 392.035 146.186C392.572 144.306 393.263 142.474 394.099 140.708C394.697 139.709 395.226 138.67 395.683 137.599C396.164 136.267 396.211 134.823 396.443 133.417C396.719 131.776 397.134 130.161 397.684 128.59C398.254 126.893 398.914 125.201 399.031 123.419C399.205 120.871 398.281 118.179 399.263 115.821C399.68 114.939 400.222 114.121 400.873 113.394C402.235 111.724 403.476 109.974 404.838 108.303C404.131 107.547 402.953 107.467 401.897 107.531Z" fill="#3F3D56"/>
<path d="M438.66 240.419C437.863 243.475 435.466 245.855 434.236 248.768C432.383 253.13 433.217 258.465 430.598 262.409C429.749 263.607 428.721 264.668 427.552 265.555C426.903 266.107 426.195 266.584 425.44 266.977C424.657 267.409 423.738 267.523 422.874 267.294C421.76 266.913 421.089 265.708 420.978 264.545C420.939 264.163 420.939 263.779 420.978 263.397C421.089 262.61 421.266 261.834 421.506 261.076C422.14 258.937 422.772 256.794 423.402 254.647C423.796 253.483 424.051 252.276 424.162 251.052C424.231 249.72 423.386 247.985 423.745 246.743C423.909 246.182 424.521 245.685 424.801 245.215C425.198 244.538 425.504 243.81 425.709 243.052C426.142 241.577 426.438 240.002 427.346 238.759C427.938 238.022 428.631 237.373 429.405 236.829C429.976 236.328 430.645 235.952 431.369 235.724C432.072 235.601 432.793 235.635 433.481 235.825C434.376 236.016 435.258 236.267 436.121 236.576H436.168C437.224 236.956 438.343 237.543 438.676 238.611C438.838 239.204 438.832 239.83 438.66 240.419Z" fill="#3F3D56"/>
<path opacity="0.1" d="M430.688 232.837C430.199 234.117 429.377 235.241 428.307 236.094C426.804 237.241 425.044 238.003 423.18 238.315C422.313 238.537 421.402 238.526 420.54 238.283C419.368 237.876 418.523 236.776 417.325 236.459C416.47 236.227 415.551 236.433 414.685 236.306C413.128 236.089 411.918 234.899 410.662 233.948C406.813 231.05 401.76 230.115 397.911 227.217C397.74 227.112 397.598 226.964 397.5 226.789C397.426 226.599 397.399 226.394 397.42 226.191C397.435 224.434 397.829 222.701 398.577 221.11C399.189 220.001 399.918 218.961 400.752 218.007C404.199 213.777 407.663 209.516 411.792 205.947C413.524 204.451 415.414 203.055 417.599 202.378C418.814 202.003 421.211 201.648 422.689 202.283C422.471 202.432 422.274 202.61 422.103 202.811C421.633 203.47 421.276 204.203 421.047 204.979C418.824 210.769 412.874 213.74 408.122 217.684L403.782 221.285C403.191 221.777 402.536 222.496 402.827 223.209C403.026 223.57 403.349 223.848 403.735 223.992C406.259 225.24 409.221 225.742 411.301 227.645C412.061 228.343 412.79 229.263 413.819 229.316C414.363 229.284 414.898 229.165 415.403 228.962C416.197 228.747 417.031 228.719 417.838 228.88C418.645 229.042 419.404 229.388 420.054 229.892C420.424 230.254 420.853 230.549 421.322 230.765C421.714 230.869 422.123 230.894 422.525 230.839C423.65 230.76 424.843 230.659 425.852 231.161C426.86 231.664 427.689 232.848 428.866 232.933C429.452 232.975 430.139 232.774 430.688 232.837Z" fill="black"/>
<path opacity="0.1" d="M402.04 170.438C401.951 170.892 401.762 171.32 401.486 171.691C401.173 171.999 400.789 172.225 400.368 172.349C399.947 172.474 399.503 172.493 399.073 172.405C398.207 172.299 397.373 171.977 396.501 171.876C394.982 171.806 393.474 172.173 392.156 172.934C390.805 173.61 389.516 174.451 388.117 174.996C386.071 175.773 383.835 175.9 381.713 175.36C380.586 175.077 379.515 174.605 378.545 173.965C377.88 173.531 377.209 172.907 377.262 172.098C377.336 171.728 377.433 171.362 377.553 171.004C377.69 170.311 377.415 169.581 377.553 168.889C377.753 167.937 378.672 167.303 379.073 166.425C379.474 165.547 379.321 164.495 379.654 163.58C380.066 162.454 381.138 161.73 382.141 161.08C383.144 160.429 384.337 159.932 385.14 159.145C385.243 159.022 385.337 158.891 385.419 158.753C385.998 157.859 386.423 156.875 386.676 155.84C387.452 153.292 387.663 150.611 388.487 148.073C389.234 145.799 390.472 143.717 392.114 141.977C392.202 141.864 392.319 141.776 392.452 141.723C392.63 141.687 392.815 141.709 392.98 141.787C395.05 142.569 396.533 144.462 397.42 146.498C398.307 148.533 398.682 150.727 399.236 152.884C399.976 155.787 401.037 158.605 401.734 161.518C402.431 164.432 402.774 167.53 402.04 170.438Z" fill="black"/>
<path opacity="0.1" d="M443.206 174.372C443.206 175.249 442.018 175.53 441.137 175.482C437.969 175.297 434.869 174.425 431.733 174.689C427.768 175.048 424.125 177.243 420.15 177.444C418.619 177.523 417.061 177.295 415.551 177.576C413.598 177.941 411.855 179.13 409.865 179.299C408.138 179.447 406.433 178.797 404.706 178.866C403.499 178.938 402.323 179.273 401.259 179.849C401.374 178.73 401.875 177.685 402.674 176.894C403.936 175.651 405.731 175.974 407.473 175.678C409.211 175.302 410.908 174.758 412.542 174.054C417.123 172.247 421.946 171.13 426.855 170.739C431.785 170.347 436.737 171.131 441.305 173.029C441.97 173.298 442.597 173.654 443.169 174.086C443.198 174.178 443.211 174.275 443.206 174.372Z" fill="black"/>
<path opacity="0.1" d="M423.297 157.849C422.989 158.123 422.771 158.484 422.672 158.884C422.572 159.284 422.594 159.704 422.737 160.091C422.853 160.339 428.302 159.287 428.877 159.208C430.313 159.002 432.832 159.102 433.798 157.786C435.519 155.454 430.187 155.972 429.21 156.057C427.351 156.215 424.711 156.469 423.297 157.849Z" fill="black"/>
<path opacity="0.1" d="M373.731 89.6444C373.498 90.6869 373.363 91.749 373.329 92.8167C371.745 93.1392 370.098 92.6105 368.577 92.0818L364.211 90.5908C363.946 90.4208 363.625 90.3585 363.315 90.4164C363.006 90.4743 362.729 90.6482 362.543 90.9027C361.841 91.6324 360.874 93.0176 359.903 93.8371C359.747 93.8205 359.593 93.7868 359.444 93.7367C358.71 93.43 358.821 92.2933 359.349 91.6958C359.877 91.0984 360.658 90.7653 361.138 90.1097C361.362 89.7206 361.612 89.3478 361.888 88.994C362.242 88.6905 362.664 88.4781 363.118 88.3755C366.164 87.4767 369.385 87.3549 372.49 88.0212C373.018 88.1375 373.62 88.349 373.778 88.8619C373.829 89.1225 373.813 89.3919 373.731 89.6444Z" fill="black"/>
<path opacity="0.1" d="M413.671 190.022C414.432 190.276 415.255 190.646 415.514 191.407L409.4 189.853L406.232 189.044C405.673 188.901 403.666 188.737 403.297 188.298C402.769 187.653 404.643 188.097 404.981 188.145C406.005 188.298 407.03 188.457 408.048 188.642C409.97 188.985 411.818 189.551 413.671 190.022Z" fill="black"/>
<path opacity="0.1" d="M416.042 195.441C415.514 195.087 413.999 195.129 413.349 194.976C412.399 194.749 411.464 194.447 410.53 194.156C408.634 193.538 406.755 192.835 404.807 192.38C404.448 192.301 403.223 192.279 403.281 191.825C403.339 191.37 404.506 191.211 404.796 191.19C406.523 191.063 408.677 191.872 410.282 192.449C412.327 193.182 414.265 194.189 416.042 195.441Z" fill="black"/>
<path opacity="0.1" d="M412.167 185.189C410.229 184.661 408.471 183.455 406.475 183.222C405.955 183.242 405.443 183.086 405.023 182.778C404.789 182.547 404.625 182.254 404.553 181.932C405.889 181.864 407.441 182.429 408.656 182.963C409.324 183.25 409.967 183.594 410.577 183.989C411.021 184.259 411.686 185.036 412.167 185.189Z" fill="black"/>
<path opacity="0.1" d="M438.66 240.419C437.863 243.475 435.466 245.854 434.236 248.768C432.383 253.13 433.217 258.464 430.598 262.409C429.749 263.607 428.721 264.668 427.552 265.555C426.903 266.107 426.195 266.584 425.44 266.977C424.657 267.409 423.738 267.523 422.874 267.294C421.76 266.913 421.089 265.708 420.978 264.545C420.939 264.163 420.939 263.779 420.978 263.397L421.01 263.482C421.469 264.592 422.219 265.756 423.402 265.951C423.846 265.983 424.291 265.923 424.711 265.775C425.131 265.627 425.516 265.393 425.841 265.089C427.583 263.688 428.597 261.6 429.563 259.585C430.319 258.133 430.918 256.603 431.348 255.023C431.559 254.124 431.659 253.204 431.876 252.305C432.879 247.938 436.295 244.374 437.05 239.949C437.111 239.644 437.126 239.332 437.092 239.023C436.993 238.621 436.84 238.233 436.638 237.871C436.455 237.462 436.32 237.032 436.237 236.591C437.293 236.972 438.412 237.559 438.745 238.627C438.881 239.221 438.852 239.841 438.66 240.419Z" fill="black"/>
<path d="M382.13 161.08C381.127 161.725 380.061 162.454 379.649 163.575C379.311 164.49 379.469 165.537 379.063 166.425C378.656 167.313 377.743 167.932 377.542 168.884C377.4 169.576 377.68 170.306 377.542 170.998C377.423 171.359 377.326 171.726 377.252 172.098C377.199 172.886 377.875 173.526 378.535 173.965C379.94 174.88 381.54 175.452 383.206 175.636C384.872 175.819 386.558 175.609 388.128 175.022C389.538 174.493 390.81 173.631 392.162 172.955C393.48 172.195 394.988 171.828 396.507 171.897C397.378 171.992 398.212 172.31 399.084 172.426C399.514 172.511 399.958 172.49 400.379 172.365C400.799 172.24 401.183 172.014 401.496 171.707C401.765 171.335 401.946 170.906 402.024 170.454C402.758 167.551 402.426 164.474 401.729 161.556C401.032 158.637 399.976 155.829 399.231 152.927C398.703 150.775 398.297 148.57 397.415 146.535C396.533 144.499 395.05 142.606 392.975 141.829C392.811 141.749 392.626 141.724 392.447 141.76C392.314 141.816 392.196 141.903 392.104 142.014C390.462 143.756 389.226 145.839 388.482 148.115C387.653 150.648 387.426 153.334 386.666 155.877C386.338 156.934 385.916 158.351 385.082 159.16C384.248 159.969 383.075 160.472 382.13 161.08Z" fill="#3F3D56"/>
<path d="M373.731 89.6444C373.498 90.6869 373.363 91.749 373.329 92.8167C371.745 93.1392 370.098 92.6105 368.577 92.0818L364.211 90.5908C363.946 90.4208 363.625 90.3585 363.315 90.4164C363.006 90.4743 362.729 90.6482 362.543 90.9027C361.841 91.6324 360.874 93.0176 359.903 93.8371C359.747 93.8205 359.593 93.7868 359.444 93.7367C358.71 93.43 358.821 92.2933 359.349 91.6958C359.877 91.0984 360.658 90.7653 361.138 90.1097C361.362 89.7206 361.612 89.3478 361.888 88.994C362.242 88.6905 362.664 88.4781 363.118 88.3755C366.164 87.4767 369.385 87.3549 372.49 88.0212C373.018 88.1375 373.62 88.349 373.778 88.8619C373.829 89.1225 373.813 89.3919 373.731 89.6444Z" fill="#3F3D56"/>
<path d="M395.451 131.688L395.092 136.515C395.039 137.171 393.788 152.779 384.559 171.02C376.639 186.664 361.228 207.041 332.131 218.493C329.861 219.392 327.504 220.231 325.062 221.01L322.337 212.445C329.177 210.289 335.765 207.404 341.989 203.837C356.819 195.261 368.35 183.022 376.391 167.271C380.657 158.885 383.698 149.929 385.42 140.676H352.316V131.688H395.451Z" fill="#6C63FF"/>
<path opacity="0.1" d="M328.568 218.499C357.659 207.046 373.076 186.675 380.99 171.03C390.219 152.789 391.476 137.192 391.523 136.526L391.882 131.699H395.578L395.219 136.526C395.171 137.181 393.915 152.789 384.686 171.03C376.766 186.675 361.355 207.046 332.263 218.499C329.993 219.397 327.635 220.238 325.189 221.021L324.83 219.894C326.104 219.44 327.35 218.974 328.568 218.499Z" fill="white"/>
<path d="M270.322 212.445L267.597 221.01C265.151 220.228 262.793 219.387 260.522 218.488C231.431 207.036 216.014 186.664 208.1 171.02C198.871 152.779 197.615 137.182 197.567 136.515L197.208 131.688H240.322V140.676H207.213C208.944 149.93 211.993 158.886 216.268 167.271C224.309 183.022 235.834 195.261 250.665 203.832C256.889 207.402 263.479 210.29 270.322 212.445Z" fill="#6C63FF"/>
<path opacity="0.1" d="M264.081 218.499C234.99 207.046 219.573 186.675 211.659 171.03C202.43 152.789 201.173 137.192 201.126 136.526L200.767 131.699H197.071L197.43 136.526C197.477 137.181 198.734 152.789 207.963 171.03C215.882 186.675 231.294 207.046 260.385 218.499C262.655 219.397 265.014 220.238 267.46 221.021L267.819 219.894C266.548 219.44 265.302 218.974 264.081 218.499Z" fill="white"/>
<path d="M346.133 295.242V343.71H246.521V295.242L249.688 291.012C281.969 279.539 288.51 249.619 289.814 237.781C290.008 236.145 290.119 234.5 290.147 232.853H302.464C302.492 234.5 302.603 236.145 302.797 237.781C304.122 249.619 310.664 279.55 342.923 291.012L346.133 295.242Z" fill="#6C63FF"/>
<path opacity="0.1" d="M346.133 295.242H246.521V301.322H346.133V295.242Z" fill="black"/>
<path opacity="0.1" d="M254.968 291.012C287.248 279.539 293.79 249.619 295.094 237.781C295.288 236.145 295.399 234.5 295.427 232.853H290.147C290.119 234.5 290.008 236.145 289.814 237.781C288.489 249.619 281.947 279.55 249.688 291.012L246.521 295.242V343.71H251.8V295.242L254.968 291.012Z" fill="white"/>
<path opacity="0.1" d="M231.389 131.688H240.322V140.676H232.181C231.861 137.716 231.597 134.719 231.389 131.688Z" fill="black"/>
<path opacity="0.1" d="M270.321 212.445L267.597 221.01C265.151 220.227 262.793 219.387 260.522 218.488C256.788 213.921 253.488 209.014 250.665 203.832C256.889 207.402 263.479 210.29 270.321 212.445Z" fill="black"/>
<path opacity="0.1" d="M322.333 212.445C329.172 210.289 335.76 207.403 341.984 203.837C339.159 209.02 335.859 213.928 332.126 218.499C329.856 219.397 327.5 220.236 325.057 221.015L322.333 212.445Z" fill="black"/>
<path opacity="0.1" d="M361.26 131.688C361.052 134.719 360.788 137.716 360.468 140.676H352.332V131.688H361.26Z" fill="black"/>
<path opacity="0.1" d="M302.818 237.781C298.531 238.613 294.123 238.613 289.835 237.781C290.03 236.145 290.141 234.5 290.168 232.853H302.486C302.513 234.5 302.624 236.145 302.818 237.781Z" fill="black"/>
<path d="M232.445 116.799C232.672 183.45 261.183 237.347 296.33 237.347C331.477 237.347 359.982 183.45 360.215 116.799H232.445Z" fill="#6C63FF"/>
<path opacity="0.1" d="M243.797 116.799H232.445C232.672 183.45 261.183 237.347 296.33 237.347C298.232 237.344 300.13 237.183 302.006 236.866C269.514 231.431 244.013 179.823 243.797 116.799Z" fill="white"/>
<path d="M330.204 313.795H262.45V331.243H330.204V313.795Z" fill="#3F3D56"/>
<path opacity="0.1" d="M265.618 316.174H330.204V313.795H262.45V331.243H265.618V316.174Z" fill="white"/>
<path d="M196.311 181.15C195.091 180.743 187.911 175.054 187.367 172.479C186.823 169.904 191.163 145.916 191.163 145.916C191.163 145.916 190.762 145.916 190.107 145.837V145.451L190.999 113.939C190.999 113.939 194.658 92.7903 187.747 94.0222C180.836 95.2541 185.17 113.939 185.17 113.939C185.17 113.939 184.384 123.424 183.829 126.269C183.301 129.013 180.883 140.19 182.531 143.664C182.591 143.787 182.658 143.907 182.731 144.023C182.731 144.023 183.006 155.946 180.023 157.574C177.177 159.123 175.994 166.922 175.894 167.62L175.741 167.556C174.891 167.024 174.145 166.342 173.539 165.542C173.476 165.463 173.428 165.378 173.37 165.294C175.313 163.105 176.36 160.263 176.302 157.336C176.244 154.409 175.086 151.611 173.059 149.501C172.116 148.52 171.01 147.712 169.791 147.111C169.755 146.101 169.516 145.108 169.088 144.192C167.716 141.253 160.113 137.409 154.712 137.319C152.22 137.245 150.176 137.953 149.432 139.904C149.052 140.893 149.168 142.019 149.01 143.045C148.693 145.16 147.336 146.815 145.594 148.131C144.89 147.345 144.129 146.611 143.318 145.937C141.555 144.584 138.038 140.121 138.038 140.121C138.038 140.121 127.062 128.738 126.249 125.618C125.436 122.499 114.47 103.766 112.03 107.029C109.591 110.291 120.43 124.508 120.43 124.508C120.43 124.508 122.49 129.674 124.073 131.418C125.657 133.163 137.801 150.822 137.801 150.822L138.382 152.028C135.816 153.381 133.471 155.105 132.642 157.791C131.428 161.746 134.084 165.722 135.921 169.423C139.501 176.645 140.013 185.855 135.393 192.454C131.254 198.28 124.073 201.051 117.352 203.472C120.598 206.025 124.631 207.365 128.757 207.263C127.204 211.768 121.703 213.259 117.014 214.094C119.475 216.463 122.996 217.325 126.375 217.848C128.03 218.13 129.707 218.263 131.386 218.245H131.798L132.21 218.213C132.782 218.175 133.351 218.103 133.915 217.996C136.354 217.499 138.725 216.167 139.971 214.01C141.027 212.164 141.396 209.648 143.313 208.723C143.812 208.497 144.35 208.369 144.897 208.347H144.839C145.198 208.347 145.567 208.347 145.926 208.347L153.914 208.426C154.247 208.426 154.59 208.426 154.933 208.426C157.188 208.374 159.595 207.982 160.741 206.116C161.212 205.21 161.46 204.203 161.464 203.182C161.633 200.649 161.464 198.042 161.533 195.489C162.214 200.136 162.927 207.38 161.232 210.055C159.855 212.082 158.186 213.894 156.28 215.432C155.8 215.835 155.362 216.285 154.97 216.775C154.712 216.96 154.559 217.06 154.559 217.06L154.395 217.552C153.793 218.466 153.357 219.479 153.107 220.545C153.014 220.818 152.98 221.108 153.006 221.396C153.191 221.771 151.686 223.32 152.125 223.971C148.365 228.386 147.653 235.074 147.653 235.074L140.789 245.511C137.262 254.79 131.982 255.742 131.982 255.742C131.982 255.742 119.58 247.409 119.243 247.002C118.905 246.595 114.163 244.559 114.163 244.559C113.604 243.577 112.751 242.797 111.724 242.328C110.098 241.651 109.961 239.156 109.961 239.156C109.76 233.26 106.302 232.811 106.302 232.811C103.514 232.573 101.387 233.07 99.7498 233.979L99.2535 234.016C96.8565 234.212 93.9738 234.429 90.806 234.64C81.9941 235.222 79.8981 240.937 79.8981 240.937C79.8981 240.937 78.8157 242.159 80.236 243.481C81.6562 244.802 90.7479 243.481 91.1333 243.449C90.4404 243.524 89.7397 243.476 89.0636 243.306C90.4944 243.253 92.4638 243.2 94.1427 243.2H94.5493C94.4436 244.092 94.3924 244.989 94.3962 245.886C94.3962 247.578 99.0687 248.662 99.0687 248.662L113.298 261.351C113.298 261.351 122.241 265.354 127.933 271.111C133.624 276.869 138.656 271.899 138.656 271.899C144.68 270.408 162.014 249.423 162.029 249.402C162.029 250.016 162.394 270.424 163.085 274.522C163.113 274.73 163.164 274.934 163.238 275.13C164.052 276.89 162.964 281.702 162.494 283.732C162.194 285.431 162.079 287.158 162.151 288.882C162.151 288.882 155.651 313.731 156.19 315.915C156.729 318.099 152.668 328.245 152.668 328.245V336.704L153.376 336.667C153.284 336.804 153.199 336.945 153.122 337.09L153.075 337.18C153.075 337.18 157.41 338.127 160.324 337.857C163.238 337.587 168.244 340.104 168.244 340.104C168.244 340.104 169.938 340.908 175.155 341.246C180.371 341.584 180.371 338.941 180.371 338.941C179.775 335.34 171.533 334.135 171.279 334.098C170.614 333.68 169.991 333.225 169.479 332.834L169.373 332.75C169.408 332.67 169.438 332.589 169.463 332.506C170.345 328.911 165.466 327.351 165.466 327.351V326.474C168.634 324.845 169.263 313.668 169.263 313.668C169.263 313.668 174.014 299.847 174.68 297.542C175.345 295.237 174.68 291.784 174.68 291.784L175.155 288.802C175.155 288.802 176.174 286.772 176.174 286.365C176.306 285.333 176.702 284.353 177.325 283.52C178.069 282.637 176.512 280.538 176.512 280.538L177.869 277.017V273.152L181.036 259.131C181.036 259.131 184.357 242.798 183.206 237.453C182.055 232.108 184.563 229.39 184.563 229.39C184.337 229.509 184.104 229.615 183.866 229.707C184.183 228.974 184.457 228.221 184.685 227.455L191.812 228.338V228.444H194.384C194.384 228.444 193.57 218.398 193.57 214.348C193.57 210.298 196.311 195.764 196.311 195.764C196.311 195.764 197.53 181.557 196.311 181.15ZM164.669 169.423C164.669 169.819 164.632 170.232 164.606 170.655L164.463 170.872L164.199 170.649L163.877 171.152L163.782 171.199C163.085 170.84 162.726 168.783 162.225 169.227L162.156 169.285C162.045 169.158 161.934 169.121 161.818 169.227L161.713 169.317C161.713 169.164 161.713 169.005 161.713 168.847C162.679 169.095 163.672 169.222 164.669 169.222C164.675 169.291 164.669 169.359 164.669 169.423ZM188.375 216.204H188.528L188.275 216.87C188.307 216.648 188.338 216.431 188.375 216.204ZM162.351 336.102L161.38 335.858L161.908 335.768L162.399 336.091L162.457 336.133L162.351 336.102ZM172.277 334.679C171.955 334.51 171.628 334.315 171.311 334.114C171.417 334.172 171.834 334.389 172.277 334.679Z" fill="url(#paint1_linear)"/>
<path opacity="0.1" d="M191.881 206.216L185.487 222.903L183.877 222.469L181.026 227.704L191.881 229.057V206.216Z" fill="black"/>
<path opacity="0.1" d="M181.854 216.891H191.881L195.561 186.569H181.854V216.891Z" fill="black"/>
<path opacity="0.1" d="M164.088 170.565H164.3C164.68 170.565 164.986 169.756 165.356 169.719C168.328 169.433 171.042 168.81 172.927 166.7C172.43 166.038 172.106 165.262 171.985 164.443C171.864 163.624 171.95 162.788 172.235 162.01C173.597 157.78 164.099 166.05 164.099 166.05C164.099 166.05 164.199 168.038 164.088 170.565Z" fill="black"/>
<path d="M152.526 158.574C152.525 160.096 152.824 161.603 153.405 163.009C153.987 164.416 154.839 165.694 155.914 166.77C156.989 167.846 158.265 168.7 159.669 169.282C161.074 169.864 162.579 170.164 164.099 170.163C164.479 170.163 164.854 170.163 165.229 170.11C167.459 169.891 169.577 169.029 171.327 167.627C173.077 166.226 174.383 164.346 175.087 162.215C175.79 160.085 175.861 157.796 175.291 155.626C174.721 153.456 173.533 151.499 171.874 149.991C170.214 148.484 168.153 147.491 165.941 147.134C163.729 146.777 161.461 147.071 159.412 147.98C157.363 148.888 155.622 150.373 154.4 152.254C153.177 154.134 152.526 156.33 152.526 158.574Z" fill="#FBBEBE"/>
<path d="M148.973 140.983C148.592 141.966 148.709 143.066 148.555 144.108C147.991 147.867 144.173 150.119 140.72 151.695C137.267 153.27 133.371 155.137 132.273 158.769C131.069 162.698 133.698 166.637 135.525 170.322C139.084 177.502 139.591 186.659 134.997 193.226C130.916 199.042 123.804 201.802 117.109 204.223C120.332 206.762 124.336 208.096 128.434 207.998C126.898 212.477 121.434 213.962 116.777 214.787C119.221 217.145 122.722 218.002 126.074 218.52C128.519 218.9 131.027 219.149 133.466 218.657C135.905 218.166 138.218 216.838 139.474 214.692C140.53 212.857 140.889 210.356 142.795 209.431C143.656 209.092 144.583 208.956 145.504 209.035L153.423 209.119C155.889 209.119 158.809 208.929 160.081 206.819C160.55 205.918 160.797 204.917 160.799 203.901C161.142 198.698 160.144 193.199 162.283 188.452C162.927 187.019 158.793 184.75 159.226 183.233C160.715 178.015 161.09 173.906 161.074 168.476C161.074 164.273 163.803 160.651 166.058 157.104C168.312 153.556 170.197 149.078 168.418 145.271C166.411 141.025 151.343 134.855 148.973 140.983Z" fill="#3F3D56"/>
<path d="M159.516 334.579L161.533 335.917L161.844 336.123L161.903 336.16L164.294 337.746L169.88 338.687L174.79 338.349C174.79 338.349 176.205 335.388 173.983 335.457C173.271 335.42 172.577 335.219 171.955 334.87L171.649 334.716C171.327 334.547 171.005 334.357 170.688 334.156C170.028 333.738 169.405 333.284 168.903 332.898C168.164 332.327 167.673 331.893 167.673 331.893L159.516 334.579Z" fill="#FBBEBE"/>
<path d="M152.584 337.207C152.584 337.207 156.887 338.148 159.78 337.878C162.674 337.608 167.658 340.104 167.658 340.104C167.658 340.104 169.342 340.897 174.521 341.236C179.701 341.574 179.701 338.941 179.701 338.941C179.109 335.361 170.926 334.182 170.672 334.13C170.773 334.182 171.2 334.399 171.633 334.69C172.214 335.071 172.842 335.568 172.89 335.969C172.98 336.72 169.257 338.084 169.257 338.084L164.009 336.699C164.009 336.699 163.117 336.44 161.897 336.123H161.781C159.973 335.63 158.135 335.25 156.28 334.986C154.02 334.743 152.864 336.667 152.626 337.101C152.609 337.135 152.595 337.17 152.584 337.207Z" fill="#3F3D56"/>
<path d="M84.7607 242.127L87.0469 243.882C87.0469 243.882 87.7121 243.851 88.7047 243.819H89.0215C90.4417 243.766 92.4005 243.713 94.0636 243.713C95.1387 243.665 96.2159 243.725 97.279 243.893C98.4194 244.295 100.447 237.358 100.447 237.358L98.1554 236.829L97.3951 236.65L96.8671 236.523L95.0034 236.084L89.3541 236.729L85.3838 239.288L84.7607 242.127Z" fill="#FBBEBE"/>
<path opacity="0.1" d="M84.7607 242.127L87.0469 243.882C87.0469 243.882 87.7121 243.851 88.7047 243.819C88.2492 243.643 87.8737 243.306 87.6487 242.873C86.1704 238.764 93.504 237.009 93.504 237.009L96.9199 236.861L97.5852 236.829H98.1132L97.3529 236.65L96.8249 236.523L94.9612 236.084L89.3119 236.729L85.3415 239.288L84.7607 242.127Z" fill="black"/>
<path d="M80.2517 243.983C81.635 245.262 90.695 243.983 91.0751 243.951C90.3875 244.029 89.6916 243.98 89.0213 243.808C88.6894 243.749 88.375 243.616 88.101 243.419C87.827 243.223 87.6003 242.967 87.4374 242.672C85.959 238.558 93.2926 236.808 93.2926 236.808L96.7086 236.66L97.3685 236.628L105.674 236.269L106.075 233.979C106.075 233.979 103.377 234.233 99.1425 234.572C96.7614 234.767 93.8628 234.984 90.7319 235.19C81.9834 235.772 79.9032 241.456 79.9032 241.456C79.9032 241.456 78.842 242.672 80.2517 243.983Z" fill="#3F3D56"/>
<path d="M181.86 144.742C181.916 144.868 181.983 144.988 182.061 145.102L184.078 148.063L189.326 148.591L189.384 146.508L190.265 115.166C190.265 115.166 193.898 94.1438 187.034 95.3545C180.171 96.5653 184.479 115.166 184.479 115.166C184.479 115.166 183.697 124.598 183.148 127.432C182.615 130.171 180.223 141.306 181.86 144.742Z" fill="#FBBEBE"/>
<path d="M170.081 222.591L171.575 225.15L174.917 230.876C174.917 230.876 180.978 233.102 182.531 231.405C183.381 230.479 184.299 227.249 184.943 224.531C185.471 222.332 185.825 220.476 185.825 220.476L170.081 222.591Z" fill="#FBBEBE"/>
<path opacity="0.1" d="M170.081 222.591L171.575 225.15C171.669 225.069 171.754 224.979 171.829 224.88C173.518 222.723 180.957 224.42 184.943 224.558C185.471 222.358 185.825 220.502 185.825 220.502L170.081 222.591Z" fill="black"/>
<path opacity="0.1" d="M94.0635 243.703C95.1386 243.654 96.2158 243.714 97.2788 243.882C98.4192 244.284 100.447 237.347 100.447 237.347L97.395 236.628L105.7 236.269L106.101 233.979C106.101 233.979 103.403 234.233 99.169 234.572C98.294 235.076 97.5133 235.729 96.8617 236.501L96.735 236.66C94.9663 238.833 94.3116 241.635 94.0635 243.703Z" fill="black"/>
<path opacity="0.1" d="M159.516 334.579L161.844 336.123C165.319 335.494 168.492 334.505 168.867 332.951C168.868 332.926 168.868 332.901 168.867 332.877C168.127 332.306 167.636 331.872 167.636 331.872L159.516 334.579Z" fill="black"/>
<path opacity="0.1" d="M152.631 337.117C155.699 336.964 158.756 336.636 161.786 336.133C159.976 335.636 158.137 335.253 156.28 334.986C154.025 334.743 152.869 336.667 152.631 337.117Z" fill="black"/>
<path d="M94.3169 246.373C94.3169 248.059 98.9578 249.138 98.9578 249.138L113.092 261.737C113.092 261.737 121.972 265.713 127.621 271.439C133.271 277.165 138.255 272.248 138.255 272.248C144.242 270.768 161.485 249.878 161.485 249.878C161.485 249.878 161.887 273.734 162.695 275.484C163.502 277.234 162.425 282.019 161.955 284.044C161.659 285.733 161.546 287.449 161.617 289.162C161.617 289.162 155.16 313.89 155.699 316.047C156.237 318.204 152.198 328.314 152.198 328.314V336.736C152.198 336.736 168.011 336.128 168.882 332.559C169.754 328.99 164.917 327.436 164.917 327.436V326.558C168.085 324.94 168.682 313.827 168.682 313.827C168.682 313.827 173.397 300.08 174.067 297.791C174.738 295.501 174.067 292.059 174.067 292.059L174.537 289.099C174.537 289.099 175.545 287.073 175.545 286.672C175.677 285.646 176.072 284.671 176.691 283.843C177.43 282.965 175.883 280.877 175.883 280.877L177.23 277.371V273.533L180.397 259.585C180.397 259.585 183.697 243.343 182.552 238.019C181.406 232.695 183.898 230.004 183.898 230.004C178.497 232.837 175.772 226.53 174.88 223.818C174.653 223.12 174.542 222.654 174.542 222.654C174.542 222.654 167.124 219.916 160.218 220.571C158.816 220.685 157.434 220.978 156.105 221.444C148.434 224.209 147.225 235.661 147.225 235.661L140.43 246.04C136.93 255.271 131.681 256.212 131.681 256.212C131.681 256.212 119.369 247.927 119.01 247.52C118.651 247.113 113.963 245.093 113.963 245.093C113.408 244.116 112.56 243.339 111.539 242.873C109.924 242.196 109.792 239.7 109.792 239.7C109.591 233.837 106.159 233.356 106.159 233.356C94.2483 232.362 94.3169 244.691 94.3169 246.373Z" fill="#3F3D56"/>
<path d="M162.816 213.428H170.081V190.857H162.816V213.428Z" fill="#F86D70"/>
<path opacity="0.1" d="M162.816 213.428H170.081V190.857H162.816V213.428Z" fill="black"/>
<path opacity="0.1" d="M181.855 144.695C181.854 144.71 181.854 144.726 181.855 144.742C181.911 144.868 181.978 144.988 182.055 145.102L184.072 148.063L189.32 148.591L189.378 146.508C187.742 146.381 184.014 145.932 181.855 144.695Z" fill="black"/>
<path d="M182.06 145.102C182.06 145.102 182.33 156.956 179.368 158.574C176.406 160.191 175.255 168.619 175.255 168.619C175.255 168.619 184.23 174.53 186.231 177.132C188.232 179.733 192.826 185.929 191.881 187.41C190.936 188.89 194.172 195.631 194.172 195.631C194.172 195.631 188.248 207.76 189.595 212.344C190.941 216.928 191.073 229.052 191.073 229.052H193.634C193.634 229.052 192.826 219.08 192.826 215.035C192.826 210.991 195.513 196.573 195.513 196.573C195.513 196.573 196.728 182.424 195.513 182.022C194.299 181.62 187.171 175.958 186.633 173.394C186.094 170.829 190.402 146.958 190.402 146.958C190.402 146.958 184.885 146.72 182.06 145.102Z" fill="#F86D70"/>
<path opacity="0.1" d="M162.679 188.763C162.924 190.413 163.524 191.989 164.437 193.384L169.41 192.538C169.41 192.538 184.347 189.165 187.43 188.89C189.298 188.643 191.119 188.123 192.836 187.346C191.653 183.147 189.343 179.353 186.158 176.376L184.262 174.615C181.469 172.018 178.232 169.946 174.706 168.498C174.928 168.683 190.598 182.08 187.166 184.708C183.734 187.336 174.495 180.938 174.495 180.938L163.988 171.897L163.608 171.569L163.001 172.516C163.31 172.643 163.611 172.788 163.904 172.949C167.484 174.918 170.142 178.225 171.295 182.149C173.455 189.419 162.679 188.763 162.679 188.763Z" fill="black"/>
<path d="M159.448 222.453C159.448 222.453 169.405 227.979 171.823 224.88C172.351 224.198 173.465 223.902 174.854 223.823C174.627 223.125 174.516 222.66 174.516 222.66C174.516 222.66 167.098 219.921 160.192 220.576C159.738 221.719 159.448 222.453 159.448 222.453Z" fill="#444053"/>
<path d="M164.031 171.58L174.917 180.96C174.917 180.96 184.12 187.378 187.589 184.729C191.057 182.08 175.123 168.513 175.123 168.513C178.642 169.966 181.876 172.032 184.674 174.615L186.57 176.376C191.554 181.002 192.678 181.002 192.847 187.801C192.889 189.477 192.319 191.883 191.881 192.316C190.265 193.903 189.136 205.423 189.384 206.772C189.632 208.12 186.374 219.757 187.43 222.993C188.486 226.228 174.231 221.375 171.818 224.478C169.405 227.582 159.448 222.052 159.448 222.052C159.448 222.052 164.965 207.898 166.311 206.957C167.658 206.016 169.273 198.735 166.311 195.367C163.349 191.999 163.085 188.763 163.085 188.763C163.085 188.763 173.856 189.43 171.697 182.16C171.089 180.053 170.035 178.101 168.607 176.439C167.178 174.776 165.408 173.442 163.418 172.526L164.031 171.58Z" fill="#E8E8F0"/>
<path opacity="0.1" d="M178.56 195.436C178.56 195.436 174.384 203.319 168.982 205.365C168.808 205.429 168.639 205.487 168.455 205.54C162.816 207.258 178.982 197.879 178.56 195.436Z" fill="black"/>
<path d="M120.156 125.692C120.156 125.692 122.173 130.816 123.788 132.566C125.404 134.316 137.378 151.838 137.378 151.838L138.392 153.953L139.263 155.755L146.935 154.946L147.463 151.848L147.167 151.489C146.396 150.563 144.295 148.078 142.885 146.995C141.138 145.652 137.637 141.205 137.637 141.205C137.637 141.205 126.74 129.88 125.932 126.782C125.124 123.683 114.222 105.104 111.803 108.319C109.385 111.533 120.156 125.692 120.156 125.692Z" fill="#FBBEBE"/>
<g opacity="0.1">
<path opacity="0.1" d="M142.415 209.034C141.495 208.955 140.568 209.089 139.707 209.426C137.806 210.351 137.447 212.852 136.391 214.687C135.156 216.833 132.801 218.16 130.378 218.652C129.896 218.745 129.409 218.813 128.92 218.853C130.464 219.003 132.021 218.936 133.545 218.652C135.969 218.16 138.324 216.833 139.559 214.687C140.615 212.852 140.974 210.351 142.875 209.426C143.374 209.201 143.912 209.075 144.459 209.056L142.415 209.034Z" fill="black"/>
<path opacity="0.1" d="M161.169 168.476C161.169 164.273 163.899 160.651 166.148 157.104C168.397 153.556 170.287 149.078 168.508 145.271C166.987 142.019 157.822 137.657 152.532 138.519C157.711 139.191 164.094 142.606 165.34 145.271C167.119 149.078 165.229 153.556 162.98 157.104C160.731 160.651 157.991 164.273 158.001 168.476C158.001 173.901 157.637 177.993 156.148 183.233C155.721 184.74 159.844 187.019 159.21 188.446C157.067 193.205 158.07 198.693 157.727 203.895C157.72 204.912 157.472 205.912 157.004 206.814C155.948 208.553 153.783 209.003 151.676 209.098H153.519C155.979 209.098 158.899 208.908 160.171 206.798C160.64 205.896 160.888 204.896 160.895 203.88C161.238 198.677 160.235 193.184 162.378 188.43C163.022 187.003 158.888 184.729 159.316 183.217C160.805 178.015 161.18 173.901 161.169 168.476Z" fill="black"/>
</g>
<path opacity="0.1" d="M138.392 153.942L139.263 155.745L146.935 154.936L147.463 151.838L147.167 151.478C146.349 151.88 140.219 154.835 138.392 153.942Z" fill="black"/>
<path opacity="0.1" d="M166.718 174.208C166.718 174.208 164.833 171.247 163.756 172.051C162.679 172.854 162.261 169.624 161.644 170.163C161.026 170.702 159.226 172.204 158.476 170.105C157.89 168.434 151.512 157.865 148.925 153.614C148.26 152.514 147.843 151.838 147.843 151.838C147.843 151.838 140.578 155.475 138.83 154.264V156.823L140.308 156.961L148.228 171.765C148.228 171.765 150.72 175.736 150.551 177.121C150.382 178.506 153.745 184.571 154.284 184.972C154.822 185.374 160.619 192.115 160.619 192.115C160.619 192.115 163.581 206.671 161.021 210.716C158.46 214.761 154.025 217.721 154.025 217.721C154.025 217.721 152.689 221.629 152.885 222.036C153.08 222.443 151.332 224.193 152.14 224.732C152.948 225.271 154.025 229.041 154.025 229.041C154.025 229.041 157.795 222.977 159.833 222.036C161.871 221.095 164.479 208.691 164.479 208.691C164.479 208.691 165.223 201.384 165.281 196.668C165.34 191.952 165.102 174.208 166.718 174.208Z" fill="black"/>
<path d="M166.311 174.208C166.311 174.208 164.432 171.247 163.355 172.051C162.278 172.854 161.855 169.624 161.243 170.163C160.63 170.702 158.83 172.204 158.075 170.105C157.484 168.434 151.106 157.865 148.524 153.614L147.442 151.838C147.442 151.838 140.177 155.475 138.424 154.264V156.823L139.907 156.961L147.827 171.765C147.827 171.765 150.324 175.736 150.15 177.121C149.976 178.506 153.318 184.571 153.883 184.972C154.448 185.374 160.219 192.115 160.219 192.115C160.219 192.115 163.18 206.671 160.625 210.716C159.275 212.747 157.633 214.568 155.752 216.119C154.172 217.425 153.06 219.21 152.584 221.206C152.492 221.478 152.46 221.766 152.489 222.052C152.684 222.453 150.937 224.209 151.745 224.748C152.552 225.287 153.64 229.073 153.64 229.073C153.64 229.073 157.41 223.009 159.448 222.067C161.486 221.126 164.099 208.723 164.099 208.723C164.099 208.723 164.838 201.416 164.902 196.699C164.965 191.983 164.727 174.208 166.311 174.208Z" fill="#F86D70"/>
<path opacity="0.1" d="M147.874 235.529C147.874 235.529 153.529 236.586 155.794 238.22C158.059 239.854 147.183 235.661 147.183 235.661L147.874 235.529Z" fill="black"/>
<path opacity="0.1" d="M161.47 249.878C161.47 249.878 167.367 254.801 166.311 259.247C165.255 263.694 162.531 274.881 162.531 274.881L161.47 249.878Z" fill="black"/>
<path opacity="0.1" d="M109.892 240.414C109.892 240.414 101.582 241.323 102.12 242.402C102.659 243.481 109.892 241.408 109.892 241.408V240.414Z" fill="black"/>
<path opacity="0.1" d="M173.703 281.347C173.703 281.347 174.231 282.019 171.147 281.347C168.064 280.676 170.339 278.603 170.339 278.603L173.703 281.347Z" fill="black"/>
<path opacity="0.1" d="M172.647 290.648C172.647 290.648 168.423 291.319 166.158 290.648C163.893 289.976 172.647 290.648 172.647 290.648Z" fill="black"/>
<path opacity="0.1" d="M163.956 327.034C163.956 327.034 163.217 326.225 159.516 327.706C155.815 329.186 154.337 329.255 153.26 328.763C152.183 328.271 163.956 327.034 163.956 327.034Z" fill="black"/>
<path opacity="0.1" d="M168.064 239.267L162.816 246.579C162.816 246.579 165.641 240.176 168.064 239.267Z" fill="black"/>
<path opacity="0.1" d="M157.864 172.051C157.864 172.051 157.637 174.477 154.253 175.424C150.868 176.37 150.224 177.137 150.224 177.137" fill="black"/>
<path opacity="0.1" d="M149.068 154.46C149.068 154.46 144.601 157.632 139.939 156.961L149.068 154.46Z" fill="black"/>
<path opacity="0.1" d="M152.468 222.385C152.468 222.385 153.772 223.204 156.903 219.619L152.468 222.385Z" fill="black"/>
<path opacity="0.1" d="M184.986 184.375C185.112 183.719 184.658 183.111 184.231 182.599L183.354 181.541C183.183 181.325 182.99 181.126 182.779 180.949C182.251 180.542 181.575 180.42 181.026 180.055" fill="black"/>
<path opacity="0.1" d="M468.464 0.058148C468.464 0.058148 424.014 -2.62774 429.241 28.5667C429.241 28.5667 428.185 34.0812 433.191 36.5821C433.191 36.5821 433.27 34.2716 437.752 35.0594C439.348 35.3243 440.969 35.4023 442.583 35.292C444.763 35.1412 446.835 34.2838 448.486 32.8493C448.486 32.8493 460.983 27.6784 465.84 7.22758C465.84 7.22758 469.436 2.76519 469.293 1.61787L461.791 4.82719C461.791 4.82719 464.357 10.2466 462.319 14.7513C462.319 14.7513 462.076 5.02282 460.635 5.23431C460.344 5.2819 456.738 7.11127 456.738 7.11127C456.738 7.11127 461.147 16.5489 457.82 23.4117C457.82 23.4117 459.082 11.7799 455.36 7.79331L450.08 10.881C450.08 10.881 455.233 20.6306 451.738 28.5878C451.738 28.5878 452.636 16.385 448.966 11.6318L444.183 15.3699C444.183 15.3699 449.024 24.982 446.073 31.5804C446.073 31.5804 445.688 17.3737 443.148 16.3004C443.148 16.3004 438.961 20.0014 438.322 21.5136C438.322 21.5136 441.638 28.4927 439.579 32.1726C439.579 32.1726 438.317 22.7085 437.282 22.6556C437.282 22.6556 433.111 28.9262 432.678 33.23C432.678 33.23 432.858 26.8378 436.274 22.0634C436.274 22.0634 432.24 22.7561 429.885 25.3732C429.885 25.3732 430.535 20.9426 437.303 20.5566C437.303 20.5566 440.751 15.7981 441.67 15.5073C441.67 15.5073 434.943 14.9469 430.862 16.7551C430.862 16.7551 434.452 12.5729 442.905 14.4763L447.631 10.6114C447.631 10.6114 438.771 9.40062 435.012 10.7383C435.012 10.7383 439.336 7.03724 448.903 9.73371L454.045 6.65657C454.045 6.65657 446.49 5.02811 441.992 5.59913C441.992 5.59913 446.744 3.03484 455.555 5.81591L459.251 4.16101C459.251 4.16101 453.718 3.07185 452.097 2.89737C450.476 2.72289 450.392 2.27877 450.392 2.27877C453.897 1.6934 457.496 2.09426 460.788 3.43667C460.788 3.43667 468.602 0.549857 468.464 0.058148Z" fill="#6C63FF"/>
<path opacity="0.1" d="M413.64 7.99423C413.64 7.99423 393.577 6.77817 395.926 20.8738C395.926 20.8738 395.456 23.3694 397.705 24.5008C397.705 24.5008 397.742 23.4434 399.77 23.8082C400.49 23.9296 401.222 23.9651 401.95 23.914C402.936 23.8469 403.872 23.4588 404.617 22.8089C404.617 22.8089 410.266 20.4773 412.462 11.2353C412.462 11.2353 414.083 9.21557 414.02 8.69743L410.63 10.1461C410.63 10.1461 411.792 12.5994 410.878 14.6349C410.878 14.6349 410.768 10.236 410.118 10.3417C409.986 10.3417 408.355 11.1877 408.355 11.1877C408.355 11.1877 410.35 15.4545 408.846 18.558C408.846 18.558 409.416 13.3026 407.732 11.4996L405.345 12.8955C405.345 12.8955 407.679 17.2997 406.095 20.895C406.095 20.895 406.501 15.3804 404.844 13.2338L402.684 14.9416C402.684 14.9416 404.87 19.2877 403.54 22.2644C403.54 22.2644 403.365 15.8457 402.214 15.3646C402.214 15.3646 400.324 17.0353 400.034 17.7227C400.034 17.7227 401.533 20.895 400.604 22.534C400.604 22.534 400.034 18.2567 399.548 18.2408C399.548 18.2408 397.669 21.0747 397.468 22.9993C397.562 21.2032 398.123 19.4628 399.094 17.95C398.006 18.1563 397.003 18.6764 396.206 19.4463C396.206 19.4463 396.502 17.4477 399.559 17.268C399.559 17.268 401.143 15.1214 401.533 14.9892C401.533 14.9892 398.492 14.7354 396.65 15.5549C396.65 15.5549 398.27 13.6621 402.093 14.4975L404.205 12.7527C404.205 12.7527 400.203 12.224 398.503 12.8109C398.503 12.8109 400.456 11.1401 404.78 12.3562L407.103 10.9656C407.103 10.9656 403.693 10.2254 401.655 10.4951C401.655 10.4951 403.804 9.33189 407.784 10.5902L409.448 9.84475C409.448 9.84475 406.945 9.34775 406.211 9.27373C405.477 9.19971 405.44 8.99351 405.44 8.99351C407.025 8.72947 408.652 8.91255 410.139 9.52223C410.139 9.52223 413.703 8.21629 413.64 7.99423Z" fill="#6C63FF"/>
<path d="M483.723 344.069C495.448 344.069 504.953 342.46 504.953 340.474C504.953 338.489 495.448 336.879 483.723 336.879C471.998 336.879 462.493 338.489 462.493 340.474C462.493 342.46 471.998 344.069 483.723 344.069Z" fill="#6C63FF"/>
<path d="M492.503 334.595C493.472 333.804 494.178 332.736 494.525 331.533C494.789 330.323 494.272 328.89 493.11 328.419C491.811 327.922 490.423 328.826 489.372 329.736C488.321 330.645 487.112 331.687 485.74 331.491C486.447 330.848 486.976 330.032 487.276 329.123C487.576 328.214 487.636 327.243 487.45 326.305C487.39 325.916 487.226 325.55 486.975 325.247C486.252 324.475 484.948 324.803 484.082 325.411C481.336 327.346 480.571 331.084 480.555 334.441C480.28 333.231 480.513 331.967 480.507 330.74C480.502 329.514 480.159 328.097 479.108 327.447C478.46 327.097 477.732 326.926 476.996 326.95C475.766 326.902 474.388 327.029 473.549 327.933C472.493 329.054 472.773 330.936 473.681 332.163C474.589 333.389 475.977 334.177 477.255 335.028C478.277 335.639 479.149 336.472 479.805 337.466C479.884 337.605 479.948 337.752 479.995 337.905H487.735C489.466 337.022 491.07 335.908 492.503 334.595Z" fill="#6C63FF"/>
</g>
<defs>
<linearGradient id="paint0_linear" x1="426.871" y1="266.966" x2="426.871" y2="54.2625" gradientUnits="userSpaceOnUse">
<stop stop-color="#808080" stop-opacity="0.25"/>
<stop offset="0.54" stop-color="#808080" stop-opacity="0.12"/>
<stop offset="1" stop-color="#808080" stop-opacity="0.1"/>
</linearGradient>
<linearGradient id="paint1_linear" x1="21040.4" y1="132489" x2="47117.8" y2="132489" gradientUnits="userSpaceOnUse">
<stop stop-color="#808080" stop-opacity="0.25"/>
<stop offset="0.54" stop-color="#808080" stop-opacity="0.12"/>
<stop offset="1" stop-color="#808080" stop-opacity="0.1"/>
</linearGradient>
<clipPath id="clip0">
<rect width="604" height="345" fill="white"/>
</clipPath>
</defs>
</svg>
