<svg width="533" height="417" viewBox="0 0 533 417" fill="none" xmlns="http://www.w3.org/2000/svg">
<g clip-path="url(#clip0)">
<path opacity="0.1" d="M105.688 61.3192C102.926 64.8518 101.863 69.8187 100.674 74.4882C91.0993 112.12 67.5056 142.389 40.6364 164.01C29.2578 173.168 15.4049 185.45 17.8943 201.87C19.2348 210.689 25.1155 217.18 29.4846 224.362C38.6509 239.401 41.6241 259.843 37.2551 277.846C32.2864 298.33 18.3982 317.443 22.6967 338.156C25.3473 350.905 34.3474 359.978 42.9998 367.777C56.4982 379.935 70.4267 391.324 84.7851 401.945C94.4101 409.064 104.65 415.991 115.867 416.894C125.744 417.691 135.419 413.733 144.797 409.828C152.991 406.413 161.392 402.859 168.008 396.017C172.327 391.549 175.769 385.785 180.566 382.13C191.834 373.546 206.306 378.986 219.227 382.662C249.714 391.289 282.343 388.139 311.354 373.769C355.856 351.723 389.775 305.427 433.304 280.587C452.019 269.904 472.378 263.274 489.708 249.516C499.471 241.682 507.862 232.111 514.501 221.233C527.603 199.926 534.688 172.759 532.642 146.166C530.596 119.573 519.132 93.9469 501.127 78.9345C481.852 62.865 457.507 59.8636 435.576 50.2166C412.93 40.2508 392.783 23.1242 370.354 12.4306C352.204 3.80179 332.452 -0.434088 312.547 0.0337999C292.642 0.501688 273.089 5.66147 255.323 15.1346C230.913 28.1495 206.17 58.5143 178.984 60.8198C159.613 62.4135 120.816 41.972 105.688 61.3192Z" fill="#371CA9"/>
<path d="M424.354 238.158C424.354 238.158 433.173 256.406 425.987 266.387C418.801 276.369 426.642 303.573 426.642 303.573" stroke="#371CA9" stroke-miterlimit="10"/>
<path d="M426.964 232.479C426.964 235.996 424.515 238.854 424.515 238.854C424.515 238.854 422.066 236.001 422.066 232.479C422.066 228.957 424.515 226.105 424.515 226.105C424.515 226.105 426.964 228.963 426.964 232.479Z" fill="#371CA9"/>
<path d="M428.925 238.158C428.925 238.158 420.106 256.406 427.292 266.387C434.478 276.369 426.637 303.573 426.637 303.573" stroke="#371CA9" stroke-miterlimit="10"/>
<path d="M426.314 232.479C426.314 235.996 428.763 238.854 428.763 238.854C428.763 238.854 431.212 236.001 431.212 232.479C431.212 228.957 428.763 226.105 428.763 226.105C428.763 226.105 426.314 228.963 426.314 232.479Z" fill="#371CA9"/>
<path opacity="0.1" d="M426.314 232.479C426.314 235.996 428.763 238.854 428.763 238.854C428.763 238.854 431.212 236.001 431.212 232.479C431.212 228.957 428.763 226.105 428.763 226.105C428.763 226.105 426.314 228.963 426.314 232.479Z" fill="black"/>
<path d="M432.518 238.158C432.518 238.158 441.336 256.406 434.15 266.387C426.964 276.369 434.805 303.573 434.805 303.573" stroke="#371CA9" stroke-miterlimit="10"/>
<path d="M435.128 232.479C435.128 235.996 432.679 238.854 432.679 238.854C432.679 238.854 430.23 236.001 430.23 232.479C430.23 228.957 432.679 226.105 432.679 226.105C432.679 226.105 435.128 228.963 435.128 232.479Z" fill="#371CA9"/>
<path d="M433.757 247.099C431.444 249.633 427.801 249.898 427.801 249.898C427.801 249.898 427.912 246.052 430.225 243.524C432.538 240.995 436.181 240.724 436.181 240.724C436.181 240.724 436.07 244.565 433.757 247.099Z" fill="#371CA9"/>
<path d="M433.989 259.689C431.676 262.223 428.033 262.488 428.033 262.488C428.033 262.488 428.144 258.642 430.457 256.114C432.77 253.585 436.413 253.314 436.413 253.314C436.413 253.314 436.322 257.149 433.989 259.689Z" fill="#371CA9"/>
<path d="M421.441 266.611C423.628 269.267 423.553 273.113 423.553 273.113C423.553 273.113 419.93 272.651 417.743 269.994C415.556 267.338 415.631 263.492 415.631 263.492C415.631 263.492 419.254 263.954 421.441 266.611Z" fill="#371CA9"/>
<path d="M423.472 239.768C426.254 241.712 427.156 245.441 427.156 245.441C427.156 245.441 423.548 246.02 420.766 244.076C417.984 242.132 417.082 238.403 417.082 238.403C417.082 238.403 420.701 237.824 423.472 239.768Z" fill="#371CA9"/>
<path opacity="0.1" d="M423.472 239.768C426.254 241.712 427.156 245.441 427.156 245.441C427.156 245.441 423.548 246.02 420.766 244.076C417.984 242.132 417.082 238.403 417.082 238.403C417.082 238.403 420.701 237.824 423.472 239.768Z" fill="black"/>
<path d="M437.088 238.158C437.088 238.158 428.26 256.406 435.456 266.403C442.651 276.401 434.8 303.589 434.8 303.589" stroke="#371CA9" stroke-miterlimit="10"/>
<path d="M434.478 232.479C434.478 235.996 436.927 238.854 436.927 238.854C436.927 238.854 439.376 236.001 439.376 232.479C439.376 228.957 436.927 226.105 436.927 226.105C436.927 226.105 434.478 228.963 434.478 232.479Z" fill="#371CA9"/>
<path opacity="0.1" d="M434.478 232.479C434.478 235.996 436.927 238.854 436.927 238.854C436.927 238.854 439.376 236.001 439.376 232.479C439.376 228.957 436.927 226.105 436.927 226.105C436.927 226.105 434.478 228.963 434.478 232.479Z" fill="black"/>
<path d="M435.183 247.37C432.84 249.877 432.664 253.744 432.664 253.744C432.664 253.744 436.307 253.526 438.65 251.019C440.994 248.512 441.17 244.644 441.17 244.644C441.17 244.644 437.522 244.862 435.183 247.37Z" fill="#371CA9"/>
<path opacity="0.1" d="M435.183 247.37C432.84 249.877 432.664 253.744 432.664 253.744C432.664 253.744 436.307 253.526 438.65 251.019C440.994 248.512 441.17 244.644 441.17 244.644C441.17 244.644 437.522 244.862 435.183 247.37Z" fill="black"/>
<path d="M439.774 264.81C437.431 267.317 437.255 271.184 437.255 271.184C437.255 271.184 440.898 270.967 443.241 268.459C445.584 265.952 445.761 262.085 445.761 262.085C445.761 262.085 442.117 262.292 439.774 264.81Z" fill="#371CA9"/>
<path d="M433.017 260.969C433.017 260.969 438.323 252.151 445.776 251.938" stroke="#371CA9" stroke-miterlimit="10"/>
<path d="M428.884 255.641C428.884 255.641 423.578 246.822 416.125 246.61" stroke="#371CA9" stroke-miterlimit="10"/>
<path d="M428.194 268.231C428.194 268.231 433.5 259.412 440.953 259.2" stroke="#371CA9" stroke-miterlimit="10"/>
<path d="M445.534 253.341C446.294 253.341 446.91 252.691 446.91 251.89C446.91 251.089 446.294 250.44 445.534 250.44C444.774 250.44 444.158 251.089 444.158 251.89C444.158 252.691 444.774 253.341 445.534 253.341Z" fill="#371CA9"/>
<path d="M416.256 248.135C417.016 248.135 417.632 247.485 417.632 246.684C417.632 245.883 417.016 245.234 416.256 245.234C415.496 245.234 414.88 245.883 414.88 246.684C414.88 247.485 415.496 248.135 416.256 248.135Z" fill="#371CA9"/>
<path d="M432.099 271.137C432.099 271.137 426.793 262.318 419.34 262.106" stroke="#371CA9" stroke-miterlimit="10"/>
<path d="M419.471 263.63C420.231 263.63 420.847 262.981 420.847 262.18C420.847 261.379 420.231 260.73 419.471 260.73C418.711 260.73 418.095 261.379 418.095 262.18C418.095 262.981 418.711 263.63 419.471 263.63Z" fill="#371CA9"/>
<path d="M441.054 260.725C441.814 260.725 442.43 260.075 442.43 259.274C442.43 258.473 441.814 257.824 441.054 257.824C440.294 257.824 439.678 258.473 439.678 259.274C439.678 260.075 440.294 260.725 441.054 260.725Z" fill="#371CA9"/>
<path d="M461.438 292.965C461.438 292.965 448.648 290.266 445.237 286.67C441.825 283.073 426.476 276.799 424.772 281.278C423.069 285.756 401.748 301.055 416.246 303.754C430.744 306.452 450.357 307.35 454.62 305.549C458.883 303.748 461.438 292.965 461.438 292.965Z" fill="#A8A8A8"/>
<path opacity="0.2" d="M416.241 302.096C430.739 304.795 450.351 305.693 454.615 303.892C457.86 302.521 460.118 295.923 461.009 292.885L461.438 292.981C461.438 292.981 458.878 303.77 454.615 305.565C450.351 307.361 430.739 306.463 416.241 303.77C412.058 302.989 410.859 301.161 411.313 298.851C411.67 300.354 413.142 301.517 416.241 302.096Z" fill="black"/>
<path d="M33.8889 312.439C33.8889 312.439 38.1117 318.283 31.9387 327.048C25.7656 335.813 20.676 343.256 22.737 348.743C22.737 348.743 32.0495 332.419 39.6285 332.19C47.2076 331.962 42.2237 322.256 33.8889 312.439Z" fill="#371CA9"/>
<path opacity="0.1" d="M33.8888 312.439C34.2568 313.002 34.547 313.617 34.7506 314.267C42.1481 323.425 46.0838 331.972 38.9785 332.19C32.3569 332.392 24.4151 344.87 22.5102 348.026C22.5731 348.269 22.6488 348.509 22.737 348.743C22.737 348.743 32.0495 332.419 39.6285 332.19C47.2075 331.962 42.2237 322.256 33.8888 312.439Z" fill="black"/>
<path d="M41.7501 319.855C41.7501 321.906 41.5334 323.574 41.2462 323.574C40.9589 323.574 40.7422 321.911 40.7422 319.855C40.7422 317.799 41.0144 318.793 41.2814 318.793C41.5485 318.793 41.7501 317.81 41.7501 319.855Z" fill="#FFD037"/>
<path d="M44.4309 322.304C42.7226 323.287 41.2361 323.898 41.1101 323.627C40.9841 323.356 42.259 322.378 43.9673 321.401C45.6756 320.424 45.0004 321.135 45.1314 321.401C45.2624 321.667 46.1392 321.321 44.4309 322.304Z" fill="#FFD037"/>
<path d="M11.5802 312.439C11.5802 312.439 7.3573 318.283 13.5304 327.048C19.7034 335.813 24.7931 343.256 22.732 348.738C22.732 348.738 13.4195 332.413 5.84049 332.185C-1.73853 331.956 3.24528 322.256 11.5802 312.439Z" fill="#371CA9"/>
<path opacity="0.1" d="M11.5802 312.439C11.2122 313.002 10.922 313.617 10.7185 314.267C3.3259 323.425 -0.614782 331.972 6.47542 332.185C13.097 332.387 21.0388 344.865 22.9436 348.021C22.8808 348.264 22.8051 348.503 22.7169 348.738C22.7169 348.738 13.4044 332.413 5.82536 332.185C-1.75365 331.956 3.24527 322.256 11.5802 312.439Z" fill="black"/>
<path d="M3.73406 319.855C3.73406 321.906 3.95074 323.574 4.23798 323.574C4.52522 323.574 4.7419 321.911 4.7419 319.855C4.7419 317.799 4.46979 318.793 4.20271 318.793C3.93563 318.793 3.73406 317.81 3.73406 319.855Z" fill="#FFD037"/>
<path d="M1.03791 322.304C2.74621 323.287 4.23278 323.898 4.35876 323.627C4.48475 323.356 3.20982 322.378 1.50152 321.401C-0.206785 320.424 0.468473 321.135 0.337453 321.401C0.206433 321.667 -0.670394 321.321 1.03791 322.304Z" fill="#FFD037"/>
<path d="M5.07454 347.973C5.07454 347.973 16.8815 347.59 20.4392 344.918C23.9969 342.246 38.5804 339.075 39.4824 343.325C40.3845 347.574 57.2256 364.632 43.8968 364.744C30.568 364.855 12.9257 362.555 9.37805 360.292C5.83042 358.029 5.07454 347.973 5.07454 347.973Z" fill="#A8A8A8"/>
<path opacity="0.2" d="M44.1387 363.272C30.8099 363.384 13.1675 361.083 9.61489 358.804C6.90882 357.067 5.83042 350.836 5.47263 347.962H5.07957C5.07957 347.962 5.82538 358.002 9.37804 360.281C12.9307 362.56 30.5731 364.866 43.9018 364.749C47.7518 364.717 49.0771 363.272 49.0066 361.137C48.4724 362.443 47.001 363.245 44.1387 363.272Z" fill="black"/>
<path d="M343.741 267.652C338.515 267.649 333.309 268.348 328.251 269.734L309.671 209.281L309.429 208.495L311.012 208.006C314.741 199.363 304.798 198.067 304.798 198.067L303.962 198.364C298.706 196.771 289.6 195.926 280.151 195.533V183.463C280.175 176.844 281.31 170.282 283.502 164.079C283.769 163.319 284.006 162.608 284.188 161.928C284.228 161.79 284.268 161.651 284.304 161.519L284.369 161.269C284.415 161.094 284.465 160.913 284.505 160.738C284.546 160.562 284.566 160.493 284.591 160.366C284.616 160.238 284.651 160.116 284.677 159.994L284.712 159.819C284.752 159.638 284.787 159.463 284.823 159.287C284.823 159.213 284.848 159.139 284.863 159.064C284.878 158.99 284.918 158.767 284.944 158.618C284.969 158.469 284.974 158.416 284.989 158.315C285.004 158.214 285.024 158.092 285.039 157.986C285.054 157.88 285.039 157.848 285.065 157.779C285.09 157.71 285.1 157.518 285.115 157.391V157.29C285.115 157.136 285.15 156.982 285.16 156.833C285.17 156.684 285.16 156.7 285.16 156.631C285.16 156.562 285.16 156.414 285.16 156.307C285.16 156.201 285.16 156.201 285.16 156.148C285.16 156.095 285.16 155.925 285.16 155.813C285.16 155.702 285.16 155.59 285.16 155.484C285.16 155.378 285.16 155.399 285.16 155.356C285.16 155.314 285.16 155.181 285.16 155.096C285.16 155.011 285.16 154.985 285.16 154.937C285.16 154.889 285.16 154.809 285.16 154.745C285.16 154.682 285.16 154.613 285.16 154.549C285.16 154.485 285.16 154.421 285.16 154.358C285.16 154.294 285.16 154.246 285.16 154.193C284.966 152.138 284.939 150.069 285.08 148.01L285.785 138.703C287.862 138.033 289.798 136.951 291.49 135.515C291.49 135.515 291.938 121.634 293.289 110.649C294.157 103.815 293.374 96.8606 291.01 90.4319C288.646 84.0031 284.779 78.3085 279.768 73.8773C278.861 73.0858 277.919 72.3261 276.936 71.6196C277.123 70.8683 277.264 70.1053 277.36 69.3353C277.809 68.4673 278.346 67.6533 278.962 66.9076C279.809 66.0258 280.978 65.5211 281.945 64.7827C284.057 63.12 284.969 60.4108 285.574 57.8184C286.813 52.5062 287.171 46.7318 285.07 41.6745C282.968 36.6173 277.858 32.4896 272.3 32.7552C270.597 32.8349 268.934 33.2865 267.261 33.4936C262.836 33.9664 258.457 32.4312 254.018 32.1497C252.731 31.9832 251.425 32.1661 250.223 32.6809C249.322 33.2012 248.542 33.9272 247.941 34.8058C245.909 37.5778 244.515 40.8093 243.869 44.2456C243.325 46.8327 243.325 49.1754 240.286 49.5579C236.864 50.0094 225.884 47.587 228.192 55.2154C229.295 58.8224 234.592 58.934 237.308 61.5901C238.719 62.9713 239.369 65.0112 240.921 66.2436L240.981 66.2861C233.926 66.3977 222.281 69.3406 215.417 85.8033C205.067 110.643 198.853 118.739 190.569 125.225C182.687 131.393 179.024 151.255 178.686 153.157C176.504 158.963 175.315 169.625 182.284 187.325C188.19 202.333 193.33 212.548 196.954 220.224L196.243 220.155C194.731 220.033 193.227 219.822 191.738 219.523C185.897 218.354 171.178 215.911 167.217 220.054C162.243 225.239 163.901 234.318 177.159 235.614C180.191 235.882 183.235 235.956 186.275 235.837V258.6L185.988 258.786C183.393 260.417 180.893 261.877 179.21 262.839L178.596 263.19C178.11 262.349 177.705 261.459 177.386 260.533L163.7 270.021L170.492 275.965L163.584 283.493C163.367 283.291 163.155 283.084 162.939 282.882C151.847 272.881 137.724 267.401 123.129 267.434C89.4918 267.434 62.2295 295.881 62.2295 330.968C62.2295 366.056 89.4968 394.503 123.129 394.503C153.253 394.503 178.268 371.66 183.161 341.71C194.751 342.618 205.525 342.894 212.6 341.805V349.126H243.657V340.275L244.433 340.222C258.407 339.16 251.161 332.663 251.161 332.663C247.956 332.663 244.428 330.782 241.949 329.141C241.077 328.562 240.18 328.036 239.263 327.547C240.104 324.399 239.849 321.037 238.542 318.07L309.379 241.043L320.203 272.597L319.483 272.911C297.92 282.685 282.837 305.108 282.837 331.207C282.837 366.3 310.105 394.742 343.736 394.742C377.368 394.742 404.641 366.273 404.641 331.213C404.641 296.152 377.363 267.652 343.741 267.652ZM346.987 378.816L344.467 337.811C344.933 337.742 345.391 337.62 345.833 337.449L366.645 372.452C360.631 376.108 353.911 378.284 346.987 378.816ZM306.365 359.224L338.239 335.123L338.299 335.208L325.227 374.991C317.726 371.59 311.216 366.149 306.365 359.224ZM365.123 288.609L347.632 325.066C346.814 324.266 345.817 323.695 344.734 323.409L344.311 322.033L345.515 283.041C352.362 283.336 359.06 285.236 365.123 288.603V288.609ZM343.389 318.995L332.736 284.343C336.272 283.456 339.895 283.008 343.53 283.009H344.497L343.389 318.995ZM324.451 287.318C324.688 287.206 324.955 287.105 325.167 286.994L338.309 325.369C337.79 325.927 337.364 326.574 337.049 327.282L303.357 307.573C304.624 305.236 306.076 303.014 307.696 300.933L311.455 296.625C315.25 292.761 319.646 289.613 324.451 287.318ZM302.909 308.519L336.742 328.312C336.589 328.897 336.511 329.501 336.51 330.108C336.51 330.198 336.51 330.288 336.51 330.379L297.577 329.656C297.759 322.272 299.578 315.035 302.888 308.524L302.909 308.519ZM350.141 330.23L387.442 316.668C389.425 323.319 389.999 330.348 389.124 337.259C388.249 344.17 385.946 350.794 382.377 356.664L349.179 334.591C349.83 333.509 350.18 332.255 350.187 330.974C350.177 330.726 350.155 330.48 350.121 330.235L350.141 330.23ZM387.139 315.637L349.945 329.162C349.572 328.021 349.064 326.934 348.433 325.927L366.07 289.119C375.955 294.914 383.453 304.363 387.119 315.643L387.139 315.637ZM299.562 212.42L302.178 220.038L257.067 234.689L256.598 224.867L282.298 216.899C282.351 217.506 282.316 218.119 282.192 218.715C282.841 217.998 283.427 217.219 283.941 216.389L299.27 211.64L299.562 212.42ZM126.374 378.587L123.854 337.683C124.364 337.675 124.871 337.605 125.366 337.476L146.027 372.255C140.012 375.9 133.294 378.064 126.374 378.587ZM85.7527 359.006L117.626 334.931L117.686 335.016L104.615 374.773C97.1128 371.373 90.6033 365.931 85.7527 359.006ZM76.9491 329.438C77.1344 322.053 78.9568 314.816 82.2706 308.306L116.678 328.434C116.493 328.988 116.376 329.565 116.331 330.15L76.9491 329.438ZM144.51 288.391L128.571 321.651L126.132 324.307C125.371 323.999 124.563 323.84 123.749 323.839H123.653L124.897 282.829C131.746 283.122 138.446 285.022 144.51 288.391ZM159.759 302.043C162.67 306.096 164.946 310.613 166.501 315.425L132.996 327.606L159.759 302.043ZM131.06 329.454L166.839 316.455C167.175 317.628 167.484 318.819 167.766 320.03C167.827 320.307 167.882 320.562 167.938 320.854C151.857 324.376 136.861 328.264 130.587 329.927L131.06 329.454ZM122.615 323.855C121.616 323.898 120.639 324.178 119.757 324.673L106.207 286.059C111.538 283.892 117.203 282.784 122.917 282.792C123.24 282.792 123.562 282.792 123.885 282.792L122.615 323.855ZM118.85 325.29C118.125 325.87 117.521 326.603 117.077 327.441L82.7695 307.355C84.0343 305.012 85.484 302.786 87.1032 300.699L90.8726 296.375C95.0308 292.147 99.9061 288.781 105.244 286.452L118.85 325.29ZM167.993 340.244C166.884 346.004 164.769 351.496 161.754 356.441L129.171 334.777C135.818 335.893 151.459 338.39 167.993 340.244ZM182.541 316.976C180.522 307.648 176.513 298.928 170.82 291.477L172.417 289.953L186.306 304.248V317.146C185.116 317.362 183.919 317.585 182.713 317.815C182.657 317.534 182.607 317.257 182.546 316.981L182.541 316.976ZM186.306 289.825L186.003 289.517L186.306 289.777V289.825ZM197.079 271.11L197.115 271.084L197.876 270.552L198.213 270.313L198.586 270.053L199.01 269.761L199.403 269.495L199.881 269.171L200.279 268.906L200.864 268.523L201.222 268.289L201.847 267.891C202.094 270.301 202.664 272.662 203.54 274.903L203.736 293.937C200.814 290.475 198.554 286.451 197.079 282.085V271.11ZM254.834 187.708C256.059 188.855 256.85 189.567 256.85 189.567C256.85 189.567 259.445 192.032 262.398 195.219C259.773 195.219 257.334 195.219 255.192 195.278L254.834 187.708ZM255.736 206.646C259.944 206.8 265.417 206.954 271.242 206.997C271.282 207.129 271.323 207.262 271.348 207.384C272.537 207.772 273.701 208.244 274.83 208.798L256.154 215.48L255.736 206.646ZM260.483 171.745C260.483 171.745 256.638 161.12 251.947 153.088C254.421 145.449 259.032 137.369 267.644 133.789L267.583 134.516L267.553 134.91C267.281 138.262 266.969 142.347 266.702 146.543V146.788C266.671 147.287 266.639 147.788 266.606 148.291V148.551L266.571 149.168L266.535 149.773L266.505 150.304C266.485 150.659 266.465 151.013 266.445 151.367V151.67C266.445 151.974 266.429 152.279 266.399 152.583V152.939C266.382 153.293 266.366 153.658 266.349 154.034V154.097C266.329 154.505 266.312 154.908 266.298 155.309V155.489C266.298 155.843 266.285 156.212 266.258 156.594V156.679C266.228 157.49 266.204 158.282 266.188 159.054V159.139C266.188 159.909 266.157 160.653 266.147 161.37V161.434C266.147 162.156 266.147 162.847 266.147 163.5C266.147 163.815 266.147 164.123 266.147 164.424V164.483C266.147 165.078 266.183 165.636 266.213 166.151V166.246C266.243 166.746 266.283 167.208 266.329 167.617V167.713C266.349 167.886 266.371 168.051 266.394 168.207V168.292C266.424 168.462 266.45 168.626 266.485 168.77V168.828C266.51 168.95 266.54 169.062 266.571 169.163L266.596 169.253C266.628 169.357 266.667 169.458 266.712 169.556C267.573 171.352 267.987 176.876 268.173 182.725C263.733 176.68 260.478 171.734 260.478 171.734L260.483 171.745ZM197.079 314.511V299.196L203.852 305.114L203.948 314.522C201.781 314.745 199.478 315.053 197.074 315.382L197.079 314.511ZM197.079 234.976C198.833 234.742 200.557 234.445 202.225 234.158C202.473 235.473 202.568 236.814 202.507 238.153V246.254H202.854C200.859 247.587 198.932 249.028 197.079 250.573V234.982V234.976ZM153.268 294.734L130.99 318.995L145.412 288.901C147.964 290.399 150.376 292.149 152.613 294.128C152.84 294.325 153.052 294.558 153.268 294.734ZM76.934 330.756C76.934 330.676 76.934 330.596 76.934 330.517L116.331 331.25C116.394 332.211 116.65 333.147 117.082 333.996L85.1681 358.13C79.805 350.122 76.9283 340.558 76.934 330.756ZM122.922 378.731C116.977 378.738 111.086 377.536 105.572 375.193L118.488 335.882C119.681 337.007 121.22 337.64 122.821 337.662L125.341 378.656C124.54 378.704 123.733 378.731 122.922 378.731ZM146.919 371.676L126.364 337.109C127.154 336.755 127.871 336.243 128.475 335.601L161.18 357.349C157.463 363.154 152.598 368.042 146.919 371.676ZM230.157 310.548C228.965 310.193 227.732 310.014 226.494 310.017H226.08H225.667C223.572 310.011 221.506 310.526 219.635 311.52C218.758 305.815 218.315 298.548 220.275 292.954C221.442 289.575 222.319 286.092 222.895 282.547L227.103 257.463L305.398 229.457L306.355 232.251L230.157 310.548ZM297.547 330.974C297.547 330.894 297.547 330.814 297.547 330.735L336.616 331.462C336.904 332.406 337.258 333.325 337.674 334.214L305.761 358.348C300.405 350.337 297.535 340.774 297.547 330.974ZM343.535 378.948C337.59 378.955 331.699 377.754 326.185 375.411L339.1 336.1C340.294 337.225 341.833 337.857 343.434 337.88L345.954 378.879C345.151 378.925 344.344 378.948 343.535 378.948ZM367.537 371.899L346.78 336.998C347.455 336.601 348.058 336.083 348.564 335.468L381.823 357.572C378.099 363.38 373.225 368.268 367.537 371.899Z" fill="url(#paint0_linear)"/>
<path d="M343.384 381.095L340.229 329.088L340.164 328.976L336.979 330.145L322.32 375.198L299.013 357.774L336.147 329.401L336.183 329.29L336.394 329.21L338.788 327.377L299.865 304.37L290.326 315.419L291.837 325.778L336.586 326.618V327.68L290.991 326.819L289.277 315.074L302.324 299.961L321.836 275.965L322.184 276.959L326.316 272.178L341.706 275.084V274.441L342.713 274.473V275.275L365.571 279.588L344.24 324.556L341.131 326.931V327.197V327.494L390.42 309.39L384.569 357.843L342.744 329.757L341.272 328.886L365.934 370.794L343.384 381.095ZM341.368 330.979L344.316 379.522L364.498 370.29L341.368 330.979ZM300.767 357.774L321.826 373.514L335.603 331.154L300.767 357.774ZM342.25 328.206L343.303 328.827L383.793 356.026L389.236 310.941L342.25 328.206ZM338.672 324.381L339.937 326.533L340.158 326.363L341.67 276.146L326.684 273.309L322.572 278.09L338.672 324.381ZM300.681 303.637L338.395 325.948L337.74 324.817L321.826 278.988L303.08 300.705L300.681 303.637ZM342.693 276.337L341.181 325.576L343.459 323.834L364.075 280.369L342.693 276.337Z" fill="#535461"/>
<path d="M128.616 380.882L125.457 328.854L125.391 328.742L122.207 329.911L107.552 374.986L84.246 357.567L121.37 329.194L121.405 329.082L121.617 329.003L124.011 327.17L85.0875 304.163L75.5533 315.212L77.0651 325.571L121.824 326.432V327.494L76.2285 326.634L74.5051 314.872L87.5567 299.754L107.084 275.742L107.431 276.736L111.564 271.955L126.913 274.855V274.212L127.921 274.244V275.046L150.779 279.36L129.468 324.307L126.359 326.681V326.947V327.244L175.643 309.14L169.792 357.593L127.966 329.507L126.495 328.636L151.157 370.539L128.616 380.882ZM126.601 330.766L129.549 379.31L149.731 370.077L126.601 330.766ZM85.9946 357.556L107.054 373.296L120.831 330.936L85.9946 357.556ZM127.478 327.988L128.531 328.61L169.021 355.808L174.463 310.723L127.478 327.988ZM123.9 324.163L125.165 326.315L125.386 326.145L126.898 275.928L111.911 273.102L107.799 277.883L123.9 324.163ZM85.8938 303.414L123.607 325.725L122.952 324.594L107.038 278.765L88.2975 300.476L85.8938 303.414ZM127.921 276.114L126.409 325.369L128.687 323.627L149.303 280.162L127.921 276.114Z" fill="#535461"/>
<path d="M195.018 294.459L173.497 272.071L166.772 279.255L188.293 301.643L195.018 294.459Z" fill="#371CA9"/>
<path opacity="0.1" d="M195.018 294.459L173.497 272.071L166.772 279.255L188.293 301.643L195.018 294.459Z" fill="black"/>
<path d="M178.631 261.357C178.631 261.357 191.123 254.408 195.951 249.935C198.857 247.255 201.982 244.85 205.288 242.748L220.96 232.692L253.715 230.036L255.227 235.879C255.227 235.879 257.747 244.379 232.551 251.816C207.355 259.253 194.756 270.94 194.756 270.94C194.756 270.94 178.631 276.762 178.631 261.357Z" fill="#DB8B8B"/>
<path opacity="0.1" d="M196.092 269.787C195.2 270.504 194.756 270.919 194.756 270.919C194.756 270.919 178.631 276.762 178.631 261.357C178.631 261.357 179.412 260.921 180.647 260.193C181.894 262.335 183.641 264.103 185.721 265.33C187.802 266.556 190.145 267.2 192.529 267.2H194.237L196.092 269.787Z" fill="black"/>
<path opacity="0.05" d="M254.754 238.812C253.353 241.941 248.52 247.083 232.551 251.795C212.086 257.835 199.932 266.669 196.092 269.787C195.2 270.504 194.756 270.919 194.756 270.919C194.756 270.919 178.631 276.762 178.631 261.357C178.631 261.357 179.412 260.921 180.647 260.193C184.391 258.031 192.317 253.287 195.936 249.914C198.841 247.233 201.966 244.828 205.273 242.727L220.945 232.671L226.781 232.198L253.7 230.015L255.212 235.858C255.212 235.858 255.565 237 254.754 238.812Z" fill="black"/>
<path d="M178.883 257.904L165.529 267.2L204.633 301.73C204.633 301.73 210.378 298.011 207.355 293.761C207.355 293.761 197.276 284.731 196.772 271.981L193.749 267.731H192.04C189.152 267.732 186.334 266.786 183.977 265.026C181.62 263.266 179.84 260.777 178.883 257.904Z" fill="#ABB1D1"/>
<path opacity="0.1" d="M254.754 238.812C246.691 234.705 227.008 234.264 227.008 234.264L226.796 232.198L253.715 230.015L255.227 235.858C255.227 235.858 255.565 237 254.754 238.812Z" fill="black"/>
<path d="M227.008 233.202C227.008 233.202 250.692 233.733 256.739 239.045L253.716 174.767H220.96L227.008 233.202Z" fill="#ABB1D1"/>
<path opacity="0.05" d="M227.008 232.936C227.008 232.936 250.692 233.468 256.739 238.78L253.716 174.502H220.96L227.008 232.936Z" fill="black"/>
<path d="M340.819 264.873C335.47 264.867 330.146 265.625 324.99 267.126C322.332 267.899 319.728 268.87 317.2 270.032C303.73 276.187 292.904 287.39 286.817 301.474C280.729 315.557 279.813 331.52 284.246 346.275C288.678 361.029 298.143 373.526 310.811 381.349C323.479 389.171 338.449 391.763 352.824 388.623C367.2 385.483 379.96 376.834 388.637 364.349C397.313 351.864 401.288 336.431 399.794 321.034C398.299 305.638 391.442 291.373 380.547 280.999C369.652 270.625 355.495 264.88 340.814 264.873H340.819ZM340.617 374.353C330.397 374.349 320.486 370.66 312.53 363.897C304.573 357.135 299.051 347.708 296.879 337.18C294.707 326.652 296.017 315.658 300.591 306.024C305.164 296.389 312.727 288.694 322.022 284.215C324.387 283.074 326.842 282.155 329.359 281.469C335.513 279.785 341.937 279.502 348.203 280.639C354.469 281.776 360.433 284.306 365.699 288.062C370.965 291.818 375.411 296.713 378.743 302.422C382.075 308.13 384.215 314.521 385.021 321.17C385.827 327.818 385.281 334.571 383.418 340.979C381.556 347.388 378.42 353.305 374.22 358.336C370.02 363.368 364.851 367.398 359.058 370.16C353.265 372.922 346.98 374.351 340.622 374.353H340.617Z" fill="#535461"/>
<path d="M246.036 193.87C246.036 193.87 305.322 191.745 306.532 199.825C307.741 207.905 247.245 204.5 247.245 204.5C247.245 204.5 242.407 199.395 246.036 193.87Z" fill="#535461"/>
<path opacity="0.05" d="M246.036 193.87C246.036 193.87 305.322 191.745 306.532 199.825C307.741 207.905 247.245 204.5 247.245 204.5C247.245 204.5 242.407 199.395 246.036 193.87Z" fill="black"/>
<path d="M198.042 226.184H187.555V322.272H198.042V226.184Z" fill="#371CA9"/>
<path opacity="0.1" d="M198.042 226.179V233.579C194.555 234.057 190.987 234.36 187.555 234.477V226.179H198.042Z" fill="black"/>
<path d="M197.256 218.216C195.785 218.096 194.321 217.889 192.872 217.595C187.187 216.447 172.856 214.041 169.001 218.126C164.163 223.225 165.776 232.155 178.681 233.43C191.587 234.705 213.769 231.305 218.209 226.2C218.209 226.179 210.181 219.263 197.256 218.216Z" fill="#535461"/>
<path d="M195.22 252.544L305.327 216.405L308.956 225.334L196.026 266.148L195.22 252.544Z" fill="#371CA9"/>
<path d="M227.889 309.518L307.343 227.034L311.778 233.834L235.952 317.167L227.889 309.518Z" fill="#371CA9"/>
<path opacity="0.1" d="M329.354 281.469C326.837 282.155 324.382 283.074 322.017 284.215L317.2 270.026C319.728 268.865 322.332 267.893 324.99 267.121L329.354 281.469Z" fill="black"/>
<path d="M342.834 323.122L337.19 326.522L297.814 210.54L296.05 205.35L305.327 199.82L307.65 207.459L342.834 323.122Z" fill="#371CA9"/>
<path opacity="0.1" d="M307.65 207.459L297.814 210.54L296.05 205.35L305.327 199.82L307.65 207.459Z" fill="black"/>
<path d="M247.648 216.405L302.903 196.42C302.903 196.42 312.584 197.695 308.951 206.2L253.297 223.629C253.297 223.629 244.831 224.479 247.648 216.405Z" fill="#535461"/>
<path d="M183.892 313.395C181.871 303.929 177.779 295.092 171.944 287.589C169.778 284.8 167.389 282.212 164.803 279.854C154.863 270.807 142.354 265.495 129.24 264.752C116.126 264.009 103.149 267.878 92.346 275.75C81.5431 283.623 73.5255 295.054 69.5516 308.249C65.5777 321.444 65.8725 335.657 70.3896 348.657C74.9067 361.657 83.3905 372.707 94.5095 380.075C105.628 387.442 118.753 390.709 131.824 389.363C144.895 388.016 157.171 382.133 166.727 372.637C176.283 363.14 182.578 350.567 184.622 336.891C185.098 333.672 185.338 330.418 185.338 327.159C185.341 322.529 184.856 317.913 183.892 313.395ZM125.845 374.141C116.657 374.131 107.696 371.138 100.178 365.569C92.6611 360.001 86.9531 352.127 83.8306 343.018C80.7082 333.909 80.3226 324.007 82.7265 314.659C85.1304 305.311 90.2071 296.971 97.2661 290.771C104.325 284.572 113.024 280.815 122.18 280.011C131.336 279.208 140.505 281.396 148.439 286.279C156.374 291.162 162.689 298.502 166.527 307.302C170.364 316.102 171.538 325.935 169.888 335.463C167.998 346.322 162.556 356.14 154.509 363.207C146.462 370.274 136.319 374.143 125.845 374.141Z" fill="#535461"/>
<path opacity="0.1" d="M185.338 327.159C185.338 330.418 185.098 333.672 184.623 336.891C179.785 336.525 174.786 335.994 169.888 335.462C170.976 329.146 170.841 322.662 169.49 316.402C174.262 315.34 179.135 314.325 183.892 313.406C184.856 317.92 185.341 322.533 185.338 327.159Z" fill="black"/>
<path opacity="0.1" d="M198.042 310.968V322.267H187.555V312.705C191.184 312.041 194.711 311.451 198.042 310.968Z" fill="black"/>
<path d="M130.284 326.963C130.284 326.963 214.984 303.589 221.837 312.508C228.691 321.428 235.952 333.338 214.596 337.587C193.24 341.837 128.687 330.357 128.687 330.357L130.284 326.963Z" fill="#371CA9"/>
<path opacity="0.1" d="M171.944 287.589L161.18 297.974C159.274 295.394 157.119 293.03 154.75 290.919L164.798 279.854C167.385 282.212 169.776 284.8 171.944 287.589Z" fill="black"/>
<path d="M127.462 322.272L190.78 252.544L192.801 268.698L130.688 328.647L127.462 322.272Z" fill="#371CA9"/>
<path opacity="0.1" d="M126.656 333.752C130.221 333.752 133.111 330.705 133.111 326.947C133.111 323.189 130.221 320.142 126.656 320.142C123.091 320.142 120.201 323.189 120.201 326.947C120.201 330.705 123.091 333.752 126.656 333.752Z" fill="black"/>
<path d="M125.845 333.752C129.41 333.752 132.3 330.705 132.3 326.947C132.3 323.189 129.41 320.142 125.845 320.142C122.28 320.142 119.39 323.189 119.39 326.947C119.39 330.705 122.28 333.752 125.845 333.752Z" fill="#535461"/>
<path opacity="0.1" d="M340.214 333.114C343.779 333.114 346.669 330.068 346.669 326.31C346.669 322.551 343.779 319.505 340.214 319.505C336.649 319.505 333.759 322.551 333.759 326.31C333.759 330.068 336.649 333.114 340.214 333.114Z" fill="black"/>
<path d="M340.617 333.964C344.182 333.964 347.072 330.918 347.072 327.159C347.072 323.401 344.182 320.354 340.617 320.354C337.052 320.354 334.162 323.401 334.162 327.159C334.162 330.918 337.052 333.964 340.617 333.964Z" fill="#535461"/>
<path opacity="0.1" d="M225.869 333.752C232.996 333.752 238.774 327.661 238.774 320.147C238.774 312.634 232.996 306.543 225.869 306.543C218.741 306.543 212.963 312.634 212.963 320.147C212.963 327.661 218.741 333.752 225.869 333.752Z" fill="black"/>
<path d="M226.68 333.752C233.807 333.752 239.585 327.661 239.585 320.147C239.585 312.634 233.807 306.543 226.68 306.543C219.552 306.543 213.775 312.634 213.775 320.147C213.775 327.661 219.552 333.752 226.68 333.752Z" fill="#535461"/>
<path d="M223.234 319.125L223.23 319.128C221.715 320.323 221.405 322.587 222.538 324.185L232.781 338.624C233.914 340.221 236.062 340.548 237.577 339.353L237.581 339.35C239.097 338.155 239.407 335.891 238.273 334.294L228.031 319.855C226.897 318.257 224.75 317.931 223.234 319.125Z" fill="#371CA9"/>
<path d="M284.959 131.207L283.759 147.202C283.621 149.228 283.647 151.263 283.835 153.285C283.991 155.075 283.835 158.209 282.172 162.99C280.037 169.097 278.933 175.552 278.912 182.061V200.266L267.321 198.141C267.321 198.141 267.825 172.642 265.81 168.393C263.794 164.143 267.321 126.426 267.321 126.426L284.959 131.207Z" fill="#DB8B8B"/>
<path opacity="0.05" d="M284.364 139.133L283.759 147.202C283.623 149.227 283.65 151.26 283.84 153.279C283.996 155.07 283.84 158.204 282.177 162.99C280.042 169.097 278.939 175.552 278.917 182.061V200.266L267.326 198.141C267.326 198.141 267.83 172.642 265.815 168.393C264.389 165.381 265.739 145.582 266.651 134.283C267.029 129.635 267.326 126.426 267.326 126.426L284.964 131.207L284.364 139.133Z" fill="black"/>
<path d="M227.522 253.388L223.163 279.525C222.613 283.014 221.77 286.445 220.643 289.777C218.088 297.14 219.721 307.462 220.96 313.093C221.51 315.579 221.968 317.151 221.968 317.151L208.866 324.588L204.835 321.401V319.276L204.331 271.997C201.307 264.56 202.315 253.404 204.331 249.155C204.904 247.758 205.307 246.291 205.53 244.788C206.538 239.093 206.851 231.093 206.851 231.093C206.851 231.093 214.913 216.75 224.488 226.312C228.015 229.834 229.356 234.44 229.638 238.849C230.132 246.397 227.522 253.388 227.522 253.388Z" fill="#DB8B8B"/>
<path opacity="0.1" d="M229.638 238.833C222.649 243.21 210.489 244.448 205.53 244.772C206.538 239.077 206.851 231.077 206.851 231.077C206.851 231.077 214.913 216.734 224.488 226.296C228.015 229.818 229.356 234.424 229.638 238.833Z" fill="black"/>
<path d="M246.661 225.765C241.302 228.773 236.238 232.332 231.543 236.389C223.48 243.295 203.323 243.826 203.323 243.826V235.858C203.827 226.296 195.26 215.672 183.67 185.923C176.267 166.926 178.318 156.174 180.767 150.862C182.158 147.861 183.67 146.612 183.67 146.612L246.661 159.362L248.913 166.48L253.715 181.673C253.715 181.673 236.078 182.736 233.055 184.329C230.031 185.923 232.047 200.266 232.047 200.266C229.023 215.14 246.661 225.765 246.661 225.765Z" fill="#ABB1D1"/>
<path opacity="0.1" d="M284.959 131.207L284.364 139.133C275.596 141.789 269.337 133.332 269.337 133.332C268.423 133.59 267.524 133.908 266.646 134.283C267.024 129.635 267.321 126.426 267.321 126.426L284.959 131.207Z" fill="black"/>
<path opacity="0.1" d="M248.913 166.48C248.676 168.961 248.676 170.518 248.676 170.518C248.676 170.518 237.086 180.611 217.433 165.205C197.78 149.8 180.143 154.05 180.143 154.05C180.143 154.05 180.349 152.817 180.767 150.862C182.158 147.861 183.67 146.612 183.67 146.612L246.661 159.362L248.913 166.48Z" fill="black"/>
<path d="M291.752 110.463C290.436 121.273 289.998 134.899 289.998 134.899C278.408 144.461 269.337 132.243 269.337 132.243C258.392 135.34 253.247 145.438 250.823 154.251C249.525 159.019 248.803 163.939 248.676 168.897C248.676 168.897 245.612 171.553 239.968 172.085C234.632 172.557 226.982 171.091 217.433 163.585C197.78 148.18 180.143 152.429 180.143 152.429C180.143 152.429 183.67 131.18 191.733 124.806C199.796 118.431 205.843 110.463 215.921 86.0264C226 61.5901 246.661 67.4335 246.661 67.4335C246.661 67.4335 247.668 62.6525 266.314 67.4335C270.855 68.6883 275.059 71.0358 278.594 74.2916C288.567 83.1312 293.405 96.8421 291.752 110.463Z" fill="white"/>
<path d="M273.051 79.4127C273.026 80.1192 272.97 80.9054 272.88 81.7819C271.872 91.3439 270.864 90.2815 259.778 92.4064C252.884 93.7291 249.301 87.6572 247.578 82.8762C246.954 81.1443 246.483 79.3553 246.172 77.5321L270.36 73.2823C270.36 73.2823 273.258 72.4271 273.051 79.4127Z" fill="#DB8B8B"/>
<path opacity="0.05" d="M250.823 154.278C249.525 159.045 248.803 163.966 248.676 168.924C248.676 168.924 245.612 171.58 239.968 172.111C239.809 171.773 239.688 171.416 239.606 171.049C238.598 166.268 231.039 157.768 231.039 157.768C226 152.987 224.992 144.488 224.992 144.488L216.677 118.723L213.906 116.333C213.906 116.333 225.496 106.771 235.574 114.739C245.653 122.707 242.629 139.707 242.629 139.707L244.645 145.55C246.736 147.409 248.863 150.687 250.823 154.278Z" fill="black"/>
<path d="M215.417 115.801L226.504 143.956C226.504 143.956 227.511 152.456 232.551 157.237C232.551 157.237 240.11 165.736 241.117 170.518C242.125 175.299 256.235 188.048 256.235 188.048C256.235 188.048 269.337 200.797 270.345 205.578C270.345 205.578 282.439 209.297 280.927 216.734C280.927 216.734 289.998 207.172 280.927 198.141C271.857 189.11 259.763 170.518 259.763 170.518C259.763 170.518 252.708 150.862 246.157 145.019L244.141 139.175C244.141 139.175 247.164 122.176 237.086 114.208C227.008 106.239 215.417 115.801 215.417 115.801Z" fill="#DB8B8B"/>
<path opacity="0.1" d="M221.968 317.135L208.866 324.572L204.835 321.385V319.26C209.362 318.921 213.761 317.522 217.71 315.164C218.92 314.442 220.058 313.73 220.971 313.103C221.5 315.563 221.968 317.135 221.968 317.135Z" fill="black"/>
<path opacity="0.1" d="M237.086 93.4901L244.141 122.707C244.141 122.707 222.472 126.426 217.937 122.707C213.402 118.989 204.835 117.926 204.835 117.926C204.835 117.926 213.906 90.3027 218.945 87.1154C223.984 83.928 237.086 93.4901 237.086 93.4901Z" fill="black"/>
<path d="M237.086 92.4276L244.141 121.645C244.141 121.645 222.472 125.363 217.937 121.645C213.402 117.926 204.835 116.864 204.835 116.864C204.835 116.864 213.906 89.2403 218.945 86.0529C223.984 82.8656 237.086 92.4276 237.086 92.4276Z" fill="white"/>
<path opacity="0.1" d="M273.051 78.8814C271.64 80.9352 269.845 82.663 267.776 83.9583C265.708 85.2536 263.41 86.0892 261.024 86.4136C258.638 86.7381 256.214 86.5445 253.902 85.8448C251.589 85.1451 249.437 83.9541 247.578 82.345C246.954 80.6131 246.483 78.8241 246.172 77.0009L270.36 72.7511C270.36 72.7511 273.258 71.8958 273.051 78.8814Z" fill="black"/>
<path d="M276.392 67.4601C276.392 72.3912 274.534 77.1204 271.226 80.6072C267.919 84.094 263.432 86.0529 258.755 86.0529C254.077 86.0529 249.591 84.094 246.283 80.6072C242.976 77.1204 241.117 72.3912 241.117 67.4601C241.117 67.152 241.117 66.8439 241.117 66.5358C241.234 61.6046 243.203 56.9242 246.593 53.524C249.983 50.1239 254.515 48.2825 259.193 48.4051C263.871 48.5277 268.311 50.6041 271.536 54.1776C274.762 57.7511 276.508 62.529 276.392 67.4601Z" fill="#DB8B8B"/>
<path opacity="0.1" d="M276.392 67.4601C276.394 69.1737 276.17 70.8792 275.727 72.528C274.364 72.8412 272.942 72.704 271.655 72.1349C269.77 71.354 268.153 70.01 266.344 69.0431C261.249 66.3233 255.187 66.8598 249.543 67.7576C246.741 68.2038 243.561 68.6182 241.359 66.7376C241.283 66.6747 241.211 66.6073 241.143 66.5358C241.259 61.6046 243.229 56.9242 246.618 53.524C250.008 50.1239 254.541 48.2825 259.218 48.4051C263.896 48.5277 268.336 50.6041 271.561 54.1776C274.787 57.7511 276.534 62.529 276.417 67.4601H276.392Z" fill="black"/>
<path d="M228.358 55.9591C229.431 59.5077 234.586 59.6192 237.232 62.2329C238.608 63.5928 239.248 65.6008 240.76 66.812C242.861 68.5013 245.895 68.1295 248.57 67.7257C253.957 66.9183 259.742 66.4348 264.6 68.8838C266.324 69.7497 267.871 70.9609 269.67 71.6674C271.469 72.3739 273.701 72.4589 275.162 71.2052C276.332 70.2012 276.76 68.5491 277.818 67.4442C278.64 66.573 279.783 66.0842 280.721 65.3193C282.777 63.6831 283.664 61.0164 284.248 58.4665C285.458 53.218 285.805 47.5605 283.744 42.5829C281.683 37.6053 276.725 33.5521 271.312 33.8124C269.655 33.8921 268.037 34.3436 266.384 34.5349C262.076 34.997 257.817 33.4724 253.494 33.2121C252.24 33.0512 250.967 33.2342 249.8 33.7433C248.92 34.2591 248.16 34.9761 247.578 35.8417C245.598 38.575 244.243 41.7525 243.617 45.1275C243.113 47.672 243.088 49.9775 240.13 50.3706C236.768 50.8381 226.085 48.4529 228.358 55.9591Z" fill="#472727"/>
<path opacity="0.05" d="M194.001 124.567C194.001 124.567 207.103 128.285 211.134 137.847C215.165 147.409 226.07 149.157 226.07 149.157" fill="black"/>
<path d="M243.385 334.931H213.15V345.025H243.385V334.931Z" fill="#371CA9"/>
<path opacity="0.1" d="M243.385 334.931H213.15V345.025H243.385V334.931Z" fill="black"/>
<path d="M217.69 316.2C220.396 314.607 222.77 313.013 222.976 312.354C222.976 312.354 229.804 319.951 235.887 322.309C237.932 323.106 239.89 324.132 241.727 325.369C244.136 326.963 247.573 328.838 250.692 328.838C250.692 328.838 257.747 335.213 244.141 336.275C230.535 337.338 198.788 333.619 198.788 333.619L200.803 320.339C206.693 320.703 212.557 319.266 217.69 316.2Z" fill="#ABB1D1"/>
</g>
<defs>
<linearGradient id="paint0_linear" x1="233.433" y1="394.726" x2="233.433" y2="32.1337" gradientUnits="userSpaceOnUse">
<stop stop-color="#808080" stop-opacity="0.25"/>
<stop offset="0.54" stop-color="#808080" stop-opacity="0.12"/>
<stop offset="1" stop-color="#808080" stop-opacity="0.1"/>
</linearGradient>
<clipPath id="clip0">
<rect width="533" height="417" fill="white"/>
</clipPath>
</defs>
</svg>
